<?xml version="1.0" encoding="UTF-8"?>
<svg version="1.1" xmlns="http://www.w3.org/2000/svg" width="1200" height="400">
<path d="M0 0 C396 0 792 0 1200 0 C1200 132 1200 264 1200 400 C804 400 408 400 0 400 C0 268 0 136 0 0 Z " fill="#F4BD26" transform="translate(0,0)"/>
<path d="M0 0 C0.66789551 0.22139648 1.33579102 0.44279297 2.02392578 0.67089844 C24.84118528 8.32756466 44.08297268 19.94780614 62 36 C62.77859375 36.69351563 63.5571875 37.38703125 64.359375 38.1015625 C75.69372311 48.8154171 84.944006 62.15030287 92 76 C92.33870117 76.65436035 92.67740234 77.3087207 93.02636719 77.98291016 C98.34026881 88.35358914 102.08699336 98.73238782 105 110 C105.30808594 111.15113281 105.61617188 112.30226563 105.93359375 113.48828125 C108.02553209 121.52572857 109.15734409 129.24880247 109.23828125 137.546875 C109.246353 138.35755432 109.25442474 139.16823364 109.26274109 140.003479 C109.27651318 141.71795564 109.28726577 143.43245891 109.29516602 145.14697266 C109.3065795 146.86092453 109.32685822 148.57484396 109.35668945 150.28857422 C109.64026197 166.6407281 107.18557952 181.93701121 101.875 197.4375 C101.58278564 198.29674072 101.29057129 199.15598145 100.98950195 200.04125977 C93.34825839 221.65630186 81.1893247 239.09863377 66 256 C65.09701172 257.01320313 65.09701172 257.01320313 64.17578125 258.046875 C38.49517858 285.21527077 -0.34435679 300.88442283 -37.296875 302.25 C-54.82695292 302.5989784 -72.19256236 301.1247269 -89 296 C-89.67063477 295.79922852 -90.34126953 295.59845703 -91.03222656 295.39160156 C-128.01753747 284.0638683 -160.67663005 257.59390452 -179.29394531 223.64013672 C-192.16839526 199.14599091 -198.21744881 174.78367525 -198.3125 147.25 C-198.31635712 146.55643402 -198.32021423 145.86286804 -198.32418823 145.14828491 C-198.36078456 131.7846904 -197.22728655 118.68815684 -193.4375 105.8125 C-193.1806543 104.93376221 -192.92380859 104.05502441 -192.65917969 103.1496582 C-180.36002621 62.85374745 -152.52399492 31.28307221 -116 11 C-81.34191085 -7.23172548 -37.5284229 -12.65898993 0 0 Z " fill="#F0BA26" transform="translate(255,52)"/>
<path d="M0 0 C4.61414512 3.72036682 8.81871095 7.80655604 13 12 C13.66 12.60070312 14.32 13.20140625 15 13.8203125 C25.40901071 23.41009552 32.28733164 36.23937085 38 49 C38.40992188 49.90878906 38.81984375 50.81757813 39.2421875 51.75390625 C49.00301985 75.92899102 49.68221301 105.79446747 40 130 C-31.61 130 -103.22 130 -177 130 C-187.2722925 101.75119563 -185.47078874 70.33639465 -173 43 C-168.43245491 33.90441067 -162.66415289 25.68263663 -156 18 C-155.27554688 17.11957031 -154.55109375 16.23914063 -153.8046875 15.33203125 C-115.78191638 -29.15335609 -46.21711117 -34.16680932 0 0 Z " fill="#F4BD26" transform="translate(279,107)"/>
<path d="M0 0 C0.66789551 0.22139648 1.33579102 0.44279297 2.02392578 0.67089844 C24.84118528 8.32756466 44.08297268 19.94780614 62 36 C62.77859375 36.69351563 63.5571875 37.38703125 64.359375 38.1015625 C75.69372311 48.8154171 84.944006 62.15030287 92 76 C92.33870117 76.65436035 92.67740234 77.3087207 93.02636719 77.98291016 C98.34026881 88.35358914 102.08699336 98.73238782 105 110 C105.30808594 111.15113281 105.61617188 112.30226563 105.93359375 113.48828125 C108.02553209 121.52572857 109.15734409 129.24880247 109.23828125 137.546875 C109.246353 138.35755432 109.25442474 139.16823364 109.26274109 140.003479 C109.27651318 141.71795564 109.28726577 143.43245891 109.29516602 145.14697266 C109.3065795 146.86092453 109.32685822 148.57484396 109.35668945 150.28857422 C109.64026197 166.6407281 107.18557952 181.93701121 101.875 197.4375 C101.58278564 198.29674072 101.29057129 199.15598145 100.98950195 200.04125977 C93.34825839 221.65630186 81.1893247 239.09863377 66 256 C65.09701172 257.01320313 65.09701172 257.01320313 64.17578125 258.046875 C38.49517858 285.21527077 -0.34435679 300.88442283 -37.296875 302.25 C-54.82695292 302.5989784 -72.19256236 301.1247269 -89 296 C-89.67063477 295.79922852 -90.34126953 295.59845703 -91.03222656 295.39160156 C-128.01753747 284.0638683 -160.67663005 257.59390452 -179.29394531 223.64013672 C-192.16839526 199.14599091 -198.21744881 174.78367525 -198.3125 147.25 C-198.31635712 146.55643402 -198.32021423 145.86286804 -198.32418823 145.14828491 C-198.36078456 131.7846904 -197.22728655 118.68815684 -193.4375 105.8125 C-193.1806543 104.93376221 -192.92380859 104.05502441 -192.65917969 103.1496582 C-180.36002621 62.85374745 -152.52399492 31.28307221 -116 11 C-81.34191085 -7.23172548 -37.5284229 -12.65898993 0 0 Z M-142 47 C-142.87011719 47.79535156 -143.74023438 48.59070313 -144.63671875 49.41015625 C-168.24875977 71.74222928 -184.20309358 106.20389413 -185.23828125 138.78125 C-185.91670423 179.47141727 -173.54815066 216.33892085 -145.32177734 246.19360352 C-119.75857659 272.35628151 -85.44011723 287.78414317 -48.85668945 288.2421875 C-8.34158933 288.34013138 25.82300236 275.10902555 55 247 C55.70511719 246.35804688 56.41023437 245.71609375 57.13671875 245.0546875 C71.50924478 231.58591058 81.46251174 213.37034202 88 195 C88.34224609 194.05302246 88.34224609 194.05302246 88.69140625 193.08691406 C100.900546 158.74434812 98.11958354 120.94049822 82.94580078 87.97265625 C76.12225175 73.74078322 66.81462445 61.43995988 56 50 C54.86304688 48.76636719 54.86304688 48.76636719 53.703125 47.5078125 C30.16644318 22.81737176 -4.99403307 8.84560172 -38.73046875 7.7265625 C-78.29546738 6.96926163 -113.23858268 19.44665513 -142 47 Z " fill="#040300" transform="translate(255,52)"/>
<path d="M0 0 C69.63 0 139.26 0 211 0 C195.40487401 31.19025197 173.89386429 53.27597503 140.4375 64.5 C137.64407182 65.42140431 134.84420655 66.24990452 132 67 C130.92177979 67.29040161 130.92177979 67.29040161 129.82177734 67.58666992 C122.57247332 69.29546695 115.32015101 69.33828464 107.91552734 69.31567383 C105.76738091 69.31252547 103.62063239 69.33600865 101.47265625 69.36132812 C92.30035462 69.40353611 83.91608691 68.35740232 75 66 C74.2560498 65.80656006 73.51209961 65.61312012 72.74560547 65.41381836 C53.78386923 60.13895399 38.20879013 49.37586105 24 36 C23.39671875 35.46117187 22.7934375 34.92234375 22.171875 34.3671875 C12.32492868 25.2104477 5.38960994 13.18908473 0 1 C0 0.67 0 0.34 0 0 Z " fill="#F3BD26" transform="translate(105,245)"/>
<path d="M0 0 C24.46622937 20.92697512 41.66945914 50.2975 44.97460938 82.68896484 C45.28480511 88.12861906 45.39080175 93.55384095 45.41210938 99.00146484 C45.41828278 99.66861511 45.42445618 100.33576538 45.43081665 101.02313232 C45.50921936 114.19195203 43.58236087 126.73126586 38.84960938 139.06396484 C38.40174072 140.24841187 38.40174072 140.24841187 37.94482422 141.45678711 C24.92574762 174.83024102 0.66217537 199.31038514 -31.89648438 213.93505859 C-47.2167001 220.5793351 -63.34469877 223.22704337 -79.93481445 223.08007812 C-82.09129759 223.06393935 -84.24591514 223.08007439 -86.40234375 223.09912109 C-99.26318535 223.12022361 -111.46007306 221.1466323 -123.52539062 216.50146484 C-124.32017822 216.20030762 -125.11496582 215.89915039 -125.93383789 215.58886719 C-142.92069762 208.96822543 -156.74505713 199.17713809 -170.02539062 186.68896484 C-170.91097656 185.90005859 -170.91097656 185.90005859 -171.81445312 185.09521484 C-182.64243981 175.03699025 -190.05540164 162.03894022 -196.02539062 148.68896484 C-196.30753418 148.07585449 -196.58967773 147.46274414 -196.88037109 146.83105469 C-209.89721314 118.27377542 -209.95459493 82.83884646 -199.53320312 53.44677734 C-186.87364974 20.9156652 -162.77661313 -4.09192722 -131.08447266 -18.41601562 C-87.86208126 -37.20345775 -36.38730542 -30.07430549 0 0 Z M-113.02539062 -13.31103516 C-113.71133301 -13.09672852 -114.39727539 -12.88242188 -115.10400391 -12.66162109 C-145.86951282 -2.74564426 -169.8661423 19.31480162 -184.77539062 47.68896484 C-192.60192946 64.28662479 -195.26506986 80.21225419 -195.40039062 98.37646484 C-195.41432861 99.57537354 -195.4282666 100.77428223 -195.44262695 102.00952148 C-195.38106186 113.68849929 -193.1231702 123.76155266 -189.02539062 134.68896484 C-117.41539062 134.68896484 -45.80539063 134.68896484 27.97460938 134.68896484 C37.6178638 105.75920156 36.64246542 74.33460564 22.97460938 46.68896484 C12.7778841 27.28084939 -1.58897321 11.45337954 -20.02539062 -0.31103516 C-20.7859375 -0.84083984 -21.54648437 -1.37064453 -22.33007812 -1.91650391 C-47.9412858 -18.91468979 -84.08924173 -22.46636857 -113.02539062 -13.31103516 Z M-186.02539062 142.68896484 C-183.42559372 149.1884571 -181.30359695 154.46225955 -177.46289062 160.06396484 C-177.03161865 160.69971436 -176.60034668 161.33546387 -176.15600586 161.99047852 C-171.66766121 168.4472679 -166.57361667 174.13290232 -161.02539062 179.68896484 C-159.74921875 180.98253906 -159.74921875 180.98253906 -158.44726562 182.30224609 C-138.11954383 201.86919986 -111.20687224 211.83113378 -83.27709961 211.98413086 C-81.8336398 211.99556006 -80.39021914 212.01586541 -78.94702148 212.0456543 C-48.80420925 212.66505085 -20.79876337 199.37659872 0.84204102 178.92407227 C11.22190054 168.73872223 19.57232289 156.19468104 24.97460938 142.68896484 C-44.65539062 142.68896484 -114.28539063 142.68896484 -186.02539062 142.68896484 Z " fill="#040300" transform="translate(291.025390625,102.31103515625)"/>
<path d="M0 0 C3.33977525 2.46574896 6.05313362 5.27662191 8.8359375 8.35546875 C9.1659375 5.05546875 9.4959375 1.75546875 9.8359375 -1.64453125 C13.7959375 -1.64453125 17.7559375 -1.64453125 21.8359375 -1.64453125 C21.92900142 8.83961556 21.99988609 19.32366259 22.04318619 29.8081398 C22.06397792 34.67758116 22.0921401 39.54673797 22.13769531 44.41601562 C22.1814554 49.12337759 22.20513773 53.83046745 22.21544647 58.53801727 C22.2227841 60.32560249 22.2371114 62.1131744 22.25885773 63.9006424 C22.40732538 76.62084346 22.24825808 89.01154258 12.82421875 98.73828125 C9.48052855 101.45790354 5.90702697 103.02046863 1.8359375 104.35546875 C0.74925781 104.71253906 -0.33742188 105.06960938 -1.45703125 105.4375 C-12.06924257 108.06539216 -23.99908508 107.30699354 -33.62890625 101.99609375 C-40.56082189 97.63696366 -44.3332474 93.14021027 -47.1640625 85.35546875 C-47.1640625 84.03546875 -47.1640625 82.71546875 -47.1640625 81.35546875 C-43.2040625 81.35546875 -39.2440625 81.35546875 -35.1640625 81.35546875 C-34.6278125 82.59296875 -34.0915625 83.83046875 -33.5390625 85.10546875 C-31.49251849 89.220406 -29.27322443 91.16974432 -25.1640625 93.35546875 C-16.59228948 96.21272642 -6.31722611 94.8995241 1.8359375 91.35546875 C2.8259375 91.02546875 3.8159375 90.69546875 4.8359375 90.35546875 C5.97139312 88.06012617 5.97139312 88.06012617 6.8359375 85.35546875 C7.18269531 84.63488281 7.52945312 83.91429687 7.88671875 83.171875 C9.09192643 79.59592958 9.05355492 76.26547658 8.9609375 72.54296875 C8.95191406 71.85009766 8.94289063 71.15722656 8.93359375 70.44335938 C8.91019907 68.7472448 8.87433391 67.05131004 8.8359375 65.35546875 C8.26746094 65.89816406 7.69898438 66.44085938 7.11328125 67 C6.34113281 67.71542969 5.56898437 68.43085938 4.7734375 69.16796875 C4.01933594 69.87566406 3.26523438 70.58335937 2.48828125 71.3125 C-3.22557389 75.71359902 -8.54005683 76.89289834 -15.5390625 76.79296875 C-16.66332642 76.78052124 -16.66332642 76.78052124 -17.81030273 76.76782227 C-26.82946754 76.49261483 -32.8027771 73.40505693 -39.37890625 67.2734375 C-48.2235072 57.77081372 -50.52118875 46.19030208 -50.37890625 33.54296875 C-49.61519832 22.21232013 -45.62553392 11.67442351 -37.140625 3.9296875 C-27.20612796 -3.98257002 -11.56681417 -6.33203068 0 0 Z " fill="#060400" transform="translate(1034.1640625,251.64453125)"/>
<path d="M0 0 C55.97058824 0 55.97058824 0 65.67578125 8.4609375 C71.57811272 14.7001266 74.19682551 21.91829693 74.5 30.4375 C74.18925317 39.2316352 71.77196121 47.08473699 65.65234375 53.5625 C62.66444943 56.16189743 59.08458849 59 55 59 C57.20480368 64.10483298 59.41023044 69.20939616 61.61621094 74.3137207 C62.36507619 76.04672132 63.11377727 77.77979289 63.86230469 79.51293945 C64.94421922 82.01793223 66.02674284 84.52266106 67.109375 87.02734375 C67.43871033 87.79022202 67.76804565 88.55310028 68.10736084 89.33909607 C68.42739075 90.07918411 68.74742065 90.81927216 69.07714844 91.58178711 C69.38873901 92.30292694 69.70032959 93.02406677 70.0213623 93.76705933 C70.71354574 95.34640229 71.41834167 96.92024567 72.13195801 98.49002075 C72.682005 99.70067703 72.682005 99.70067703 73.24316406 100.93579102 C73.57930725 101.66693619 73.91545044 102.39808136 74.26177979 103.15138245 C75 105 75 105 75 107 C70.38 107 65.76 107 61 107 C54.53180844 92.38711871 48.15463428 77.74789724 42 63 C32.43 62.67 22.86 62.34 13 62 C13 76.85 13 91.7 13 107 C8.71 107 4.42 107 0 107 C0 71.69 0 36.38 0 0 Z " fill="#050400" transform="translate(399,72)"/>
<path d="M0 0 C3.96 0 7.92 0 12 0 C12 35.31 12 70.62 12 107 C8.04 107 4.08 107 0 107 C-0.33 103.37 -0.66 99.74 -1 96 C-1.78375 97.051875 -2.5675 98.10375 -3.375 99.1875 C-8.30232325 104.78621371 -13.60948746 107.83230799 -21.109375 108.4453125 C-31.56440442 108.89887287 -38.98621788 107.42518075 -47.25 100.75 C-55.64626467 92.92127609 -59.54854054 82.81372145 -60.203125 71.484375 C-60.30010588 63.75823183 -59.94506769 57.17780566 -57 50 C-56.73316406 49.30519531 -56.46632813 48.61039063 -56.19140625 47.89453125 C-52.69934146 39.87054237 -46.03809004 33.47575436 -38.10546875 29.84765625 C-29.98127305 27.63010849 -19.71911822 27.43789143 -11.8125 30.5625 C-8 33 -8 33 -1 40 C-0.67 26.8 -0.34 13.6 0 0 Z " fill="#050400" transform="translate(625,72)"/>
<path d="M0 0 C8.48757277 5.93428642 13.13886165 14.61167426 15.55078125 24.52734375 C15.55078125 28.48734375 15.55078125 32.44734375 15.55078125 36.52734375 C-5.23921875 36.52734375 -26.02921875 36.52734375 -47.44921875 36.52734375 C-43.50696532 48.35410404 -40.69736996 55.62303762 -30.13671875 61.90234375 C-22.10671798 63.76978579 -14.5447486 62.81076561 -7.44921875 58.52734375 C-3.85209434 55.27685133 -0.99272415 52.15785994 0.55078125 47.52734375 C4.84078125 47.52734375 9.13078125 47.52734375 13.55078125 47.52734375 C11.26708491 56.96662195 6.02414741 62.96690946 -1.51171875 68.96484375 C-11.38782783 74.21809326 -22.59750488 75.8565265 -33.55908203 72.97216797 C-43.14708202 69.54805317 -50.41885985 63.50430792 -55.00390625 54.4609375 C-60.29808912 42.27235264 -61.51198096 29.91133739 -56.70703125 17.27734375 C-52.35626324 7.76510562 -45.32666776 -0.82080282 -35.390625 -4.8125 C-23.32572997 -7.52029185 -10.61751878 -6.38405834 0 0 Z " fill="#070501" transform="translate(541.44921875,106.47265625)"/>
<path d="M0 0 C0.60070312 0.41507812 1.20140625 0.83015625 1.8203125 1.2578125 C2.46226562 1.69351563 3.10421875 2.12921875 3.765625 2.578125 C9.76385159 7.17090937 12.57354897 12.90088991 13.8203125 20.2578125 C13.90396145 22.12847731 13.93814256 24.00173842 13.93383789 25.87426758 C13.93372459 27.52541313 13.93372459 27.52541313 13.93360901 29.20991516 C13.92844772 30.3871666 13.92328644 31.56441803 13.91796875 32.77734375 C13.9165538 33.99105148 13.91513885 35.20475922 13.91368103 36.45524597 C13.90808915 40.32696002 13.89553808 44.19861597 13.8828125 48.0703125 C13.87779645 50.69726479 13.87323373 53.32421799 13.86914062 55.95117188 C13.85812237 62.38674109 13.84086325 68.82226695 13.8203125 75.2578125 C9.8603125 75.2578125 5.9003125 75.2578125 1.8203125 75.2578125 C1.4903125 71.9578125 1.1603125 68.6578125 0.8203125 65.2578125 C0.25183594 65.80050781 -0.31664062 66.34320313 -0.90234375 66.90234375 C-1.67449219 67.61777344 -2.44664062 68.33320313 -3.2421875 69.0703125 C-3.99628906 69.77800781 -4.75039063 70.48570312 -5.52734375 71.21484375 C-11.54426056 75.84937614 -17.14068131 76.81427793 -24.4921875 76.7578125 C-25.33015869 76.75354248 -26.16812988 76.74927246 -27.03149414 76.74487305 C-35.12995198 76.52242681 -40.88692556 74.55057444 -46.6796875 68.7578125 C-50.68838317 62.07665305 -50.91860006 55.92166196 -50.1796875 48.2578125 C-48.44064655 42.08311646 -43.47032189 38.40282751 -38.1796875 35.2578125 C-30.47332392 31.85511531 -22.48531757 30.06904857 -14.2421875 28.5078125 C-13.13294922 28.28738281 -12.02371094 28.06695312 -10.88085938 27.83984375 C-6.54432291 26.99509799 -2.61120048 26.2578125 1.8203125 26.2578125 C0.26008341 17.2096819 0.26008341 17.2096819 -5.6171875 10.5078125 C-11.2067682 7.78118777 -17.05120794 7.49598493 -23.1796875 8.2578125 C-27.72232648 10.11346568 -31.78118863 12.88407926 -34.1796875 17.2578125 C-34.5096875 18.5778125 -34.8396875 19.8978125 -35.1796875 21.2578125 C-39.1396875 21.2578125 -43.0996875 21.2578125 -47.1796875 21.2578125 C-46.89981247 14.68074931 -44.49679898 10.20450273 -40.1796875 5.2578125 C-29.76771642 -3.48080609 -12.40398091 -6.95595792 0 0 Z " fill="#040300" transform="translate(699.1796875,103.7421875)"/>
<path d="M0 0 C5.9239211 4.35764877 9.73999464 12.03004652 12.1171875 18.84765625 C12.1171875 19.83765625 12.1171875 20.82765625 12.1171875 21.84765625 C7.4971875 21.84765625 2.8771875 21.84765625 -1.8828125 21.84765625 C-2.4396875 20.63078125 -2.9965625 19.41390625 -3.5703125 18.16015625 C-7.58666273 10.22541554 -13.6768193 6.58298732 -21.8828125 3.84765625 C-33.11077868 2.61039487 -43.51526924 2.90248915 -52.8828125 9.84765625 C-60.32134918 16.34690724 -64.73199568 26.55231635 -65.71484375 36.26953125 C-66.68976238 51.23339867 -66.15168456 65.84668528 -55.8828125 77.84765625 C-50.23506787 84.02270873 -43.58551907 87.35103422 -35.2578125 88.23046875 C-24.96028597 88.54188588 -16.18372383 86.89153109 -8.421875 79.7734375 C-5.33249807 75.90779581 -3.71888096 71.41000819 -1.8828125 66.84765625 C2.7371875 66.84765625 7.3571875 66.84765625 12.1171875 66.84765625 C10.22133669 77.70571088 5.82632549 85.88642553 -2.8828125 92.84765625 C-11.72327029 98.38524031 -20.46544991 100.22865457 -30.7578125 100.16015625 C-31.64259277 100.1545166 -32.52737305 100.14887695 -33.43896484 100.14306641 C-45.30890012 99.92191469 -54.7315791 96.31541927 -63.6953125 88.34765625 C-64.778125 87.11015625 -64.778125 87.11015625 -65.8828125 85.84765625 C-66.7078125 84.96078125 -67.5328125 84.07390625 -68.3828125 83.16015625 C-78.84026982 70.14570309 -81.61187557 52.06444776 -79.8828125 35.84765625 C-77.41913495 20.20056642 -70.55303849 6.92532159 -57.6328125 -2.52734375 C-39.26580705 -13.69346796 -17.6396976 -10.79608048 0 0 Z " fill="#050400" transform="translate(474.8828125,228.15234375)"/>
<path d="M0 0 C9.30685714 5.56910323 16.00681647 13.46309788 19.55078125 23.71484375 C22.58564039 36.72527125 20.79829717 49.28658378 14.03515625 60.8125 C8.35803193 69.07154936 0.2025724 74.36173177 -9.578125 76.44921875 C-21.31311152 77.78888159 -30.90982923 76.44214686 -40.828125 69.76171875 C-48.25656605 63.78601718 -53.62290114 54.18925887 -54.96191406 44.74121094 C-55.11183538 41.96617733 -55.12482096 39.22762862 -55.078125 36.44921875 C-55.09359375 35.52882813 -55.1090625 34.6084375 -55.125 33.66015625 C-55.0645673 22.93335256 -51.04710664 14.10244472 -43.578125 6.44921875 C-31.59298902 -3.50357246 -14.64924313 -6.4829725 0 0 Z M-31.578125 11.44921875 C-32.465 12.00609375 -33.351875 12.56296875 -34.265625 13.13671875 C-40.85153836 19.72263211 -42.79452211 27.08809113 -42.828125 36.13671875 C-42.79064571 46.55713202 -41.06111294 52.89417047 -33.73828125 60.49609375 C-27.78926889 65.8749476 -22.4788885 67.12225958 -14.48046875 66.83984375 C-10.22800582 66.26750688 -7.10895953 64.82779959 -3.578125 62.44921875 C-2.670625 61.85109375 -1.763125 61.25296875 -0.828125 60.63671875 C1.98758564 57.89922229 3.73429069 54.94698966 5.421875 51.44921875 C5.999375 50.27359375 6.576875 49.09796875 7.171875 47.88671875 C10.11597711 39.50985363 9.49864754 29.68497996 5.7421875 21.69921875 C2.06844398 15.43863808 -2.16929629 10.70617716 -9.0546875 8.07421875 C-17.2647885 6.0407572 -24.54747477 6.73474067 -31.578125 11.44921875 Z " fill="#050400" transform="translate(549.578125,251.55078125)"/>
<path d="M0 0 C6.36980828 3.62966604 10.82388934 9.41914486 13.15625 16.40234375 C14.67562021 24.822187 15.59303905 36.63413768 10.625 44 C6.22033294 49.8201389 1.96362384 55.22860804 -5.375 57 C-12.13010995 57.88557844 -17.55395035 57.37003153 -23.37109375 53.67578125 C-30.24853282 47.92447255 -33.84902521 39.47403389 -34.69140625 30.70703125 C-35.0147407 21.1425896 -33.61017644 12.71532381 -27.5625 5.0625 C-19.75965059 -2.99205423 -10.36790208 -4.6131691 0 0 Z " fill="#F1BB26" transform="translate(611.375,113)"/>
<path d="M0 0 C5.48565816 4.43648857 9.04866191 8.83143217 10.58203125 15.859375 C10.66453125 16.705 10.74703125 17.550625 10.83203125 18.421875 C6.87203125 18.421875 2.91203125 18.421875 -1.16796875 18.421875 C-1.55984375 17.349375 -1.95171875 16.276875 -2.35546875 15.171875 C-4.21094799 10.83950602 -6.94265847 8.83891166 -10.8671875 6.33984375 C-14.12977547 5.03813208 -17.04073024 5.08182748 -20.54296875 5.046875 C-22.47269531 5.00433594 -22.47269531 5.00433594 -24.44140625 4.9609375 C-28.98033293 5.5223561 -31.92852931 7.18243556 -35.16796875 10.421875 C-35.48359428 12.41795927 -35.48359428 12.41795927 -35.54296875 14.734375 C-35.59195313 15.51425781 -35.6409375 16.29414063 -35.69140625 17.09765625 C-34.91344552 20.55203411 -33.04153842 21.44857778 -30.16796875 23.421875 C-27.1379102 24.52264608 -27.1379102 24.52264608 -23.8359375 25.203125 C-22.62486328 25.48800781 -21.41378906 25.77289063 -20.16601562 26.06640625 C-18.27979492 26.48986328 -18.27979492 26.48986328 -16.35546875 26.921875 C4.21411116 31.58275239 4.21411116 31.58275239 9.26953125 37.984375 C9.74261719 38.56316406 10.21570313 39.14195312 10.703125 39.73828125 C13.97874782 44.62337964 13.42514425 50.8117238 12.83203125 56.421875 C10.82196221 62.89331679 6.98779757 66.60916894 1.40625 70.23046875 C-8.06888423 74.61577367 -20.15825317 74.97176186 -30.27734375 72.734375 C-38.20101039 69.78145576 -45.10892688 64.9386192 -49.16796875 57.421875 C-52.16796875 50.48681006 -52.16796875 50.48681006 -52.16796875 47.421875 C-47.87796875 47.421875 -43.58796875 47.421875 -39.16796875 47.421875 C-38.48734375 48.989375 -37.80671875 50.556875 -37.10546875 52.171875 C-34.51359075 57.36297343 -32.50354976 59.23047566 -27.16796875 61.421875 C-19.15555908 63.36186142 -11.0740222 63.61243506 -3.69140625 59.6875 C-0.74254609 57.23767772 -0.20448751 54.70880814 0.26953125 50.984375 C0.11480258 47.34316738 0.11480258 47.34316738 -2.16796875 44.671875 C-9.33973476 39.29305049 -18.4238806 38.15812911 -27.03515625 36.4921875 C-34.56870682 34.90617685 -42.45074166 31.91859924 -47.3125 25.546875 C-49.72365542 19.5575209 -49.56329479 11.77065749 -47.09375 5.84375 C-43.47842282 0.65352688 -38.09955938 -3.48873222 -31.96875 -5.1875 C-20.55354117 -6.77957934 -9.55101572 -6.95245108 0 0 Z " fill="#060400" transform="translate(705.16796875,254.578125)"/>
<path d="M0 0 C6.24376908 4.44288922 9.98593435 11.11414165 11.26171875 18.609375 C12.11722615 30.31319157 11.76893465 38.71100706 4.01171875 47.921875 C-1.23789907 53.41624993 -5.50771307 55.66571686 -13.11328125 56.109375 C-18.97352553 55.9084064 -23.22992157 54.37952374 -27.73828125 50.609375 C-35.14893695 42.22576669 -37.35870562 33.10702249 -37.0859375 22.11328125 C-36.23875149 13.57478854 -33.14080609 6.39977214 -26.73828125 0.609375 C-18.46875305 -5.29743086 -8.68069896 -4.85137964 0 0 Z " fill="#F2BB26" transform="translate(1032.73828125,262.390625)"/>
<path d="M0 0 C1.19532349 0.01426025 1.19532349 0.01426025 2.41479492 0.02880859 C8.42529386 0.24265257 12.70150921 1.1898799 17.0625 5.5625 C18.42375 6.861875 18.42375 6.861875 19.8125 8.1875 C26.00786643 16.4153304 26.62848085 25.96461457 26.453125 35.88671875 C26.44746521 37.11413284 26.44180542 38.34154694 26.43597412 39.6061554 C26.41376322 43.48785064 26.3635934 47.36858848 26.3125 51.25 C26.29241534 53.89777303 26.27416804 56.54556068 26.2578125 59.19335938 C26.21394823 65.65010283 26.14502562 72.10613966 26.0625 78.5625 C22.1025 78.5625 18.1425 78.5625 14.0625 78.5625 C14.04791748 76.96857422 14.03333496 75.37464844 14.01831055 73.73242188 C13.96017986 67.79827856 13.88294702 61.86450881 13.80004883 55.93066406 C13.76686906 53.36627278 13.73881568 50.80180969 13.71606445 48.23730469 C13.6823915 44.54330958 13.63006693 40.8499684 13.57421875 37.15625 C13.56782883 36.0163562 13.5614389 34.8764624 13.55485535 33.70202637 C13.41901545 26.28684737 13.15437448 19.57707762 7.5625 14.125 C2.36687034 10.87773146 -2.97815728 10.8389236 -8.9375 11.5625 C-14.05970376 13.57628647 -17.69548722 16.45569311 -19.9375 21.5625 C-22.90605132 29.14879781 -23.10890092 36.83393659 -23.25390625 44.87109375 C-23.27468735 45.83781509 -23.29546844 46.80453644 -23.31687927 47.80055237 C-23.38188991 50.86696758 -23.44103277 53.93346322 -23.5 57 C-23.5432314 59.0878987 -23.58684712 61.17578949 -23.63085938 63.26367188 C-23.73752115 68.36320033 -23.83892309 73.46280911 -23.9375 78.5625 C-27.8975 78.5625 -31.8575 78.5625 -35.9375 78.5625 C-35.9375 53.1525 -35.9375 27.7425 -35.9375 1.5625 C-31.9775 1.5625 -28.0175 1.5625 -23.9375 1.5625 C-23.6075 4.8625 -23.2775 8.1625 -22.9375 11.5625 C-21.926875 10.49 -20.91625 9.4175 -19.875 8.3125 C-13.92165545 1.99466497 -8.46978046 -0.16173539 0 0 Z " fill="#080601" transform="translate(946.9375,248.4375)"/>
<path d="M0 0 C3.96 0 7.92 0 12 0 C12.00410889 1.68480469 12.00821777 3.36960938 12.01245117 5.10546875 C12.031916 10.69760643 12.07433007 16.28926161 12.13209057 21.88113403 C12.16625407 25.26866352 12.19145368 28.65574718 12.19555664 32.04345703 C12.20486595 35.94620435 12.24590574 39.84754737 12.29296875 43.75 C12.2890361 44.95551514 12.28510345 46.16103027 12.28105164 47.40307617 C12.399743 54.29490362 12.97234981 59.90354558 18 65 C22.78507955 67.82995576 27.58152925 67.50404379 33 67 C37.75700786 65.32623797 40.94944268 63.01389121 44 59 C49.42935223 47.3844247 48.66728265 34.70956076 48.75 22.1875 C48.77820781 20.0305755 48.80814181 17.87367285 48.83984375 15.71679688 C48.9131333 10.47790431 48.96305664 5.23926977 49 0 C52.96 0 56.92 0 61 0 C61 25.41 61 50.82 61 77 C57.04 77 53.08 77 49 77 C48.67 73.7 48.34 70.4 48 67 C47.01 68.0725 46.02 69.145 45 70.25 C38.72759849 76.37335435 33.87355214 78.37818027 25 78.5 C17.71268502 78.39986513 12.76743042 77.3430532 7.30078125 72.4921875 C-0.36734629 64.50842275 -0.42636806 54.96354952 -0.29296875 44.43359375 C-0.28872391 43.15895767 -0.28447906 41.88432159 -0.28010559 40.57106018 C-0.26623423 37.21224507 -0.23936858 33.85406301 -0.20599365 30.49542236 C-0.17508729 27.05624812 -0.16155672 23.617008 -0.14648438 20.17773438 C-0.1135248 13.45162826 -0.06179855 6.72590046 0 0 Z " fill="#060400" transform="translate(730,250)"/>
<path d="M0 0 C6.51286578 3.56597974 9.36316737 8.72137742 11.97229004 15.42205811 C13.53139844 20.90158907 13.29906574 26.38319236 13.203125 32.0390625 C13.19746521 33.31228363 13.19180542 34.58550476 13.18597412 35.89730835 C13.1674977 39.24810191 13.13169754 42.59776082 13.0871582 45.94824219 C13.0459059 49.38076078 13.02789987 52.81339761 13.0078125 56.24609375 C12.96390001 62.95607715 12.89495109 69.66538398 12.8125 76.375 C8.8525 76.375 4.8925 76.375 0.8125 76.375 C0.79791748 74.75078125 0.78333496 73.1265625 0.76831055 71.453125 C0.71018725 65.40716927 0.63295428 59.36158048 0.55004883 53.31591797 C0.51686561 50.70302298 0.48881329 48.09005745 0.46606445 45.47705078 C0.43239792 41.71356239 0.38007351 37.95071661 0.32421875 34.1875 C0.31782883 33.02573242 0.3114389 31.86396484 0.30485535 30.66699219 C0.16971076 23.15307684 -0.12196954 16.51913381 -5.625 10.875 C-11.32221477 8.47617273 -17.38764078 8.2116373 -23.34375 10.03515625 C-28.92524316 12.86262318 -32.18296933 17.55561255 -34.22680664 23.29199219 C-35.63973978 28.3830409 -35.54300677 33.52721287 -35.6015625 38.77734375 C-35.62092865 39.85504532 -35.6402948 40.93274689 -35.6602478 42.04310608 C-35.71975755 45.4661583 -35.76631456 48.88924466 -35.8125 52.3125 C-35.85070608 54.64129025 -35.88975933 56.97006676 -35.9296875 59.29882812 C-36.02543564 64.99077313 -36.10957218 70.68278426 -36.1875 76.375 C-40.1475 76.375 -44.1075 76.375 -48.1875 76.375 C-48.1875 50.965 -48.1875 25.555 -48.1875 -0.625 C-44.2275 -0.625 -40.2675 -0.625 -36.1875 -0.625 C-35.8575 2.675 -35.5275 5.975 -35.1875 9.375 C-34.73375 8.67375 -34.28 7.9725 -33.8125 7.25 C-24.95148761 -2.45491834 -12.26304431 -4.83959608 0 0 Z " fill="#040300" transform="translate(630.1875,250.625)"/>
<path d="M0 0 C4.929375 -0.061875 9.85875 -0.12375 14.9375 -0.1875 C16.47398193 -0.21481201 18.01046387 -0.24212402 19.59350586 -0.27026367 C35.87036678 -0.36891131 35.87036678 -0.36891131 42.375 4.9375 C42.91125 5.618125 43.4475 6.29875 44 7 C44.556875 7.680625 45.11375 8.36125 45.6875 9.0625 C48.7857297 13.63607717 48.43625733 18.69220254 48 24 C46.36626821 29.53653551 43.87534518 32.95440704 39 36 C31.24258873 39.94012241 23.50988584 39.33787799 15 39.1875 C10.05 39.125625 5.1 39.06375 0 39 C0 26.13 0 13.26 0 0 Z " fill="#F1BB26" transform="translate(412,84)"/>
<path d="M0 0 C3.63 0 7.26 0 11 0 C11 9.57 11 19.14 11 29 C16.94 29 22.88 29 29 29 C29 32.3 29 35.6 29 39 C23.39 39 17.78 39 12 39 C12.09341945 46.35089585 12.19948807 53.70145782 12.31738281 61.05200195 C12.35571119 63.55357841 12.39055718 66.05521072 12.421875 68.55688477 C12.46744146 72.14880357 12.52545024 75.74033662 12.5859375 79.33203125 C12.59748871 80.45398392 12.60903992 81.57593658 12.62094116 82.73188782 C12.64081085 83.77274033 12.66068054 84.81359283 12.68115234 85.88598633 C12.69447601 86.80309891 12.70779968 87.72021149 12.7215271 88.66511536 C12.85377574 91.27061139 12.85377574 91.27061139 15 94 C18.34613512 94.58687784 18.34613512 94.58687784 22.125 94.6875 C23.40632812 94.75324219 24.68765625 94.81898438 26.0078125 94.88671875 C26.99523437 94.92410156 27.98265625 94.96148437 29 95 C29 98.63 29 102.26 29 106 C26.3118751 106.08164159 23.626277 106.14079668 20.9375 106.1875 C20.18533203 106.21263672 19.43316406 106.23777344 18.65820312 106.26367188 C12.67909056 106.34132269 8.06928872 105.32842593 3.1875 101.625 C0.3517931 97.74455898 -0.24835417 94.01044971 -0.22705078 89.29174805 C-0.22689972 88.17096359 -0.22674866 87.05017914 -0.22659302 85.89543152 C-0.21627045 84.6963063 -0.20594788 83.49718109 -0.1953125 82.26171875 C-0.1924826 81.02581497 -0.18965271 79.78991119 -0.18673706 78.51655579 C-0.17745218 75.24335003 -0.15950633 71.97034356 -0.1373291 68.69720459 C-0.11680817 65.35219152 -0.10789268 62.00716974 -0.09765625 58.66210938 C-0.07561791 52.1079852 -0.04109903 45.55403125 0 39 C-4.29 39 -8.58 39 -13 39 C-13 35.7 -13 32.4 -13 29 C-8.71 29 -4.42 29 0 29 C0 19.43 0 9.86 0 0 Z " fill="#050400" transform="translate(846,221)"/>
<path d="M0 0 C3.96 0 7.92 0 12 0 C12.01030746 1.13117249 12.02061493 2.26234497 12.03123474 3.42779541 C12.12893449 14.08109232 12.23166541 24.73433037 12.33933926 35.38753128 C12.39453498 40.86461631 12.44794971 46.34170672 12.49731445 51.81884766 C12.54500731 57.10325529 12.59735203 62.38759814 12.65294075 67.67192841 C12.67334197 69.68935282 12.69205873 71.70679498 12.70907402 73.72425079 C12.73316736 76.5470268 12.76321533 79.36968067 12.79467773 82.19238281 C12.8004332 83.02891891 12.80618866 83.86545502 12.81211853 84.7273407 C12.85841031 88.37431883 13.10973511 91.43894043 14 95 C17.63 95.33 21.26 95.66 25 96 C25 99.63 25 103.26 25 107 C11.92498813 107.57968033 11.92498813 107.57968033 6 104 C0.87595443 98.87595443 -0.22450977 93.34955403 -0.24884033 86.35157776 C-0.24164978 85.50353073 -0.23445923 84.6554837 -0.22705078 83.78173828 C-0.22734283 82.87378006 -0.22763489 81.96582184 -0.22793579 81.03034973 C-0.22654779 78.04357182 -0.21101148 75.05704658 -0.1953125 72.0703125 C-0.19158049 69.99380632 -0.18873441 67.91729837 -0.18673706 65.84078979 C-0.17911543 60.3860586 -0.15947951 54.93143458 -0.1373291 49.47674561 C-0.11683903 43.90638682 -0.10772858 38.33601064 -0.09765625 32.765625 C-0.07623227 21.84370301 -0.04211404 10.92186043 0 0 Z " fill="#090701" transform="translate(805,220)"/>
<path d="M0 0 C3.96 0 7.92 0 12 0 C12 25.41 12 50.82 12 77 C8.04 77 4.08 77 0 77 C0 51.59 0 26.18 0 0 Z " fill="#090701" transform="translate(885,250)"/>
<path d="M0 0 C0.38973405 8.18441513 -0.46368411 15.07676221 -5.5625 21.75 C-10.79073782 27.27441878 -17.08432624 30.25978984 -24.6875 30.5 C-29.50325688 30.24152717 -32.87466799 29.52571347 -37 27 C-39.62462509 23.97158643 -40.84133961 21.95196232 -41.5 18 C-40.83559666 14.01357997 -39.65799808 12.05669779 -37 9 C-30.38077629 5.04385932 -23.78118065 3.64401365 -16.25 2.25 C-15.12722656 2.02957031 -14.00445313 1.80914062 -12.84765625 1.58203125 C-8.46829346 0.73964486 -4.47208143 0 0 0 Z " fill="#EFB926" transform="translate(701,140)"/>
<path d="M0 0 C4.5352022 3.22790192 8.10747196 7.37189645 10.1953125 12.5625 C10.1953125 14.2125 10.1953125 15.8625 10.1953125 17.5625 C-5.9746875 17.5625 -22.1446875 17.5625 -38.8046875 17.5625 C-36.90514227 9.96431909 -35.28722236 4.92198077 -28.99609375 0.20703125 C-19.90538951 -5.20829149 -9.16089775 -5.18430226 0 0 Z " fill="#F1BB26" transform="translate(533.8046875,114.4375)"/>
<path d="M0 0 C2.09765625 0.703125 2.09765625 0.703125 4.72265625 2.828125 C6.55137275 6.65180496 6.27276813 8.66367791 5.09765625 12.703125 C3.59765625 15.140625 3.59765625 15.140625 1.09765625 16.703125 C-2.0311849 17.3127889 -4.77832594 17.35658928 -7.90234375 16.703125 C-11.21812451 14.03432585 -11.79242734 12.38704936 -12.46484375 8.203125 C-11.90234375 4.703125 -11.90234375 4.703125 -9.96484375 1.703125 C-6.23174164 -0.73481924 -4.29518808 -0.77442456 0 0 Z " fill="#070601" transform="translate(893.90234375,219.296875)"/>
</svg>
