<svg xmlns="http://www.w3.org/2000/svg" xmlns:xlink="http://www.w3.org/1999/xlink" width="400" zoomAndPan="magnify" viewBox="0 0 300 299.999988" height="400" preserveAspectRatio="xMidYMid meet" version="1.0"><defs><g/><clipPath id="f1086a89fa"><path d="M 48.609375 50.695312 L 251.109375 50.695312 L 251.109375 253.195312 L 48.609375 253.195312 Z M 48.609375 50.695312 " clip-rule="nonzero"/></clipPath><clipPath id="41e907ec52"><path d="M 66.925781 69.007812 L 232.675781 69.007812 L 232.675781 234.757812 L 66.925781 234.757812 Z M 66.925781 69.007812 " clip-rule="nonzero"/></clipPath></defs><rect x="-30" width="360" fill="#ffffff" y="-29.999999" height="359.999986" fill-opacity="1"/><rect x="-30" width="360" fill="#303437" y="-29.999999" height="359.999986" fill-opacity="1"/><g clip-path="url(#f1086a89fa)"><path fill="#ffffff" d="M 149.859375 50.695312 C 93.835938 50.695312 48.609375 95.921875 48.609375 151.945312 C 48.609375 207.96875 93.835938 253.195312 149.859375 253.195312 C 205.886719 253.195312 251.109375 207.96875 251.109375 151.945312 C 251.109375 95.921875 205.886719 50.695312 149.859375 50.695312 Z M 149.859375 244.195312 C 99.011719 244.195312 57.609375 202.796875 57.609375 151.945312 C 57.609375 101.09375 99.011719 59.695312 149.859375 59.695312 C 200.710938 59.695312 242.109375 101.09375 242.109375 151.945312 C 242.109375 202.796875 200.710938 244.195312 149.859375 244.195312 Z M 149.859375 244.195312 " fill-opacity="1" fill-rule="nonzero"/></g><g clip-path="url(#41e907ec52)"><path fill="#ffffff" d="M 149.859375 69.007812 C 103.96875 69.007812 66.925781 106.054688 66.925781 151.941406 C 66.925781 197.832031 103.96875 234.875 149.859375 234.875 C 195.75 234.875 232.792969 197.832031 232.792969 151.941406 C 232.792969 106.054688 195.75 69.007812 149.859375 69.007812 Z M 149.859375 227.503906 C 108.207031 227.503906 74.296875 193.59375 74.296875 151.941406 C 74.296875 110.292969 108.207031 76.382812 149.859375 76.382812 C 191.511719 76.382812 225.421875 110.292969 225.421875 151.941406 C 225.421875 193.59375 191.511719 227.503906 149.859375 227.503906 Z M 149.859375 227.503906 " fill-opacity="1" fill-rule="nonzero"/></g><g fill="#ffffff" fill-opacity="1"><g transform="translate(85.687498, 166.10863)"><g><path d="M 24.234375 -17.5625 L 31.859375 0 L 26.625 0 L 19.625 -16.671875 L 8.859375 -16.671875 L 8.859375 0 L 4.09375 0 L 4.09375 -39.515625 L 18.796875 -39.515625 C 22.597656 -39.515625 25.640625 -38.582031 27.921875 -36.71875 C 30.203125 -34.851562 31.34375 -32.023438 31.34375 -28.234375 C 31.34375 -25.566406 30.71875 -23.316406 29.46875 -21.484375 C 28.226562 -19.660156 26.484375 -18.351562 24.234375 -17.5625 Z M 8.859375 -20.921875 L 18.1875 -20.921875 C 20.90625 -20.921875 22.988281 -21.535156 24.4375 -22.765625 C 25.894531 -23.992188 26.625 -25.765625 26.625 -28.078125 C 26.625 -30.359375 25.878906 -32.117188 24.390625 -33.359375 C 22.910156 -34.597656 20.84375 -35.21875 18.1875 -35.21875 L 8.859375 -35.21875 Z M 8.859375 -20.921875 "/></g></g></g><g fill="#ffffff" fill-opacity="1"><g transform="translate(119.081035, 166.10863)"><g><path d="M 16.421875 0.515625 C 13.691406 0.515625 11.273438 -0.128906 9.171875 -1.421875 C 7.066406 -2.710938 5.425781 -4.472656 4.25 -6.703125 C 3.070312 -8.929688 2.484375 -11.445312 2.484375 -14.25 C 2.484375 -16.832031 3.019531 -19.265625 4.09375 -21.546875 C 5.164062 -23.828125 6.734375 -25.664062 8.796875 -27.0625 C 10.867188 -28.457031 13.375 -29.15625 16.3125 -29.15625 C 18.726562 -29.15625 20.976562 -28.617188 23.0625 -27.546875 C 25.15625 -26.484375 26.859375 -24.894531 28.171875 -22.78125 C 29.484375 -20.675781 30.140625 -18.085938 30.140625 -15.015625 L 30.140625 -13.46875 L 6.84375 -13.46875 C 6.90625 -12.46875 7.09375 -11.519531 7.40625 -10.625 C 8.132812 -8.40625 9.289062 -6.640625 10.875 -5.328125 C 12.46875 -4.015625 14.300781 -3.359375 16.375 -3.359375 C 18.539062 -3.359375 20.347656 -3.9375 21.796875 -5.09375 C 23.253906 -6.257812 24.296875 -7.632812 24.921875 -9.21875 L 29.625 -9.21875 C 29.039062 -7.425781 28.160156 -5.796875 26.984375 -4.328125 C 25.804688 -2.859375 24.347656 -1.679688 22.609375 -0.796875 C 20.867188 0.078125 18.804688 0.515625 16.421875 0.515625 Z M 7.25 -17.359375 L 25.4375 -17.359375 C 25.394531 -17.835938 25.320312 -18.316406 25.21875 -18.796875 C 25.113281 -19.285156 24.976562 -19.738281 24.8125 -20.15625 C 24.050781 -21.8125 22.921875 -23.078125 21.421875 -23.953125 C 19.921875 -24.835938 18.253906 -25.28125 16.421875 -25.28125 C 14.523438 -25.28125 12.859375 -24.828125 11.421875 -23.921875 C 9.984375 -23.023438 8.867188 -21.769531 8.078125 -20.15625 C 7.867188 -19.695312 7.695312 -19.226562 7.5625 -18.75 C 7.425781 -18.269531 7.320312 -17.804688 7.25 -17.359375 Z M 7.25 -17.359375 "/></g></g></g><g fill="#ffffff" fill-opacity="1"><g transform="translate(151.646523, 166.10863)"><g><path d="M 15.328125 0.515625 C 12.773438 0.515625 10.539062 -0.113281 8.625 -1.375 C 6.707031 -2.632812 5.222656 -4.375 4.171875 -6.59375 C 3.117188 -8.820312 2.59375 -11.390625 2.59375 -14.296875 C 2.59375 -17.234375 3.117188 -19.8125 4.171875 -22.03125 C 5.222656 -24.257812 6.707031 -26.003906 8.625 -27.265625 C 10.539062 -28.523438 12.773438 -29.15625 15.328125 -29.15625 C 17.265625 -29.15625 18.941406 -28.8125 20.359375 -28.125 C 21.773438 -27.4375 23.222656 -26.125 24.703125 -24.1875 L 24.703125 -39.515625 L 29.109375 -39.515625 L 29.109375 0 L 24.703125 0 L 24.703125 -4.453125 C 23.253906 -2.585938 21.820312 -1.289062 20.40625 -0.5625 C 18.988281 0.15625 17.296875 0.515625 15.328125 0.515625 Z M 15.75 -3.359375 C 17.539062 -3.359375 19.117188 -3.832031 20.484375 -4.78125 C 21.847656 -5.738281 22.914062 -7.035156 23.6875 -8.671875 C 24.46875 -10.316406 24.859375 -12.191406 24.859375 -14.296875 C 24.859375 -16.429688 24.46875 -18.316406 23.6875 -19.953125 C 22.914062 -21.597656 21.847656 -22.894531 20.484375 -23.84375 C 19.117188 -24.800781 17.539062 -25.28125 15.75 -25.28125 C 13.945312 -25.28125 12.390625 -24.796875 11.078125 -23.828125 C 9.765625 -22.859375 8.753906 -21.550781 8.046875 -19.90625 C 7.347656 -18.269531 7 -16.398438 7 -14.296875 C 7 -12.222656 7.347656 -10.363281 8.046875 -8.71875 C 8.753906 -7.082031 9.765625 -5.78125 11.078125 -4.8125 C 12.390625 -3.84375 13.945312 -3.359375 15.75 -3.359375 Z M 15.75 -3.359375 "/></g></g></g><g fill="#ffffff" fill-opacity="1"><g transform="translate(184.470877, 166.10863)"><g><path d="M 11.8125 0.515625 C 8.945312 0.515625 6.675781 -0.207031 5 -1.65625 C 3.320312 -3.101562 2.484375 -5.085938 2.484375 -7.609375 C 2.484375 -10.097656 3.414062 -12.066406 5.28125 -13.515625 C 6.800781 -14.722656 8.992188 -15.625 11.859375 -16.21875 L 22.0625 -18.1875 C 22.0625 -20.425781 21.472656 -22.132812 20.296875 -23.3125 C 18.992188 -24.625 17.234375 -25.28125 15.015625 -25.28125 C 13.253906 -25.28125 11.726562 -24.8125 10.4375 -23.875 C 9.144531 -22.945312 8.328125 -21.671875 7.984375 -20.046875 L 3.578125 -20.046875 C 3.921875 -22.046875 4.648438 -23.71875 5.765625 -25.0625 C 6.890625 -26.414062 8.265625 -27.4375 9.890625 -28.125 C 11.515625 -28.8125 13.242188 -29.15625 15.078125 -29.15625 C 16.734375 -29.15625 18.296875 -28.914062 19.765625 -28.4375 C 21.234375 -27.957031 22.46875 -27.210938 23.46875 -26.203125 C 24.46875 -25.242188 25.171875 -24.160156 25.578125 -22.953125 C 25.992188 -21.742188 26.242188 -20.59375 26.328125 -19.5 C 26.421875 -18.414062 26.46875 -17.546875 26.46875 -16.890625 L 26.46875 0 L 22.0625 0 L 22.0625 -4.5 C 21.0625 -3.050781 19.90625 -1.929688 18.59375 -1.140625 C 17.625 -0.554688 16.578125 -0.132812 15.453125 0.125 C 14.335938 0.382812 13.125 0.515625 11.8125 0.515625 Z M 12.328125 -3.359375 C 14.085938 -3.359375 15.609375 -3.6875 16.890625 -4.34375 C 18.921875 -5.414062 20.300781 -6.796875 21.03125 -8.484375 C 21.757812 -10.179688 22.125 -12.222656 22.125 -14.609375 L 12.796875 -12.734375 C 10.648438 -12.328125 9.078125 -11.65625 8.078125 -10.71875 C 7.285156 -9.925781 6.890625 -8.925781 6.890625 -7.71875 C 6.890625 -6.40625 7.378906 -5.347656 8.359375 -4.546875 C 9.347656 -3.753906 10.671875 -3.359375 12.328125 -3.359375 Z M 12.328125 -3.359375 "/></g></g></g><path stroke-linecap="butt" transform="matrix(-0.75, 0, 0, -0.75, 225.842097, 181.553642)" fill="none" stroke-linejoin="miter" d="M -0.00220379 3.498606 L 200.133229 3.498606 " stroke="#ffffff" stroke-width="7" stroke-opacity="1" stroke-miterlimit="4"/></svg>