<?xml version="1.0" encoding="UTF-8"?>
<svg version="1.1" xmlns="http://www.w3.org/2000/svg" width="1200" height="400">
<path d="M0 0 C396 0 792 0 1200 0 C1200 132 1200 264 1200 400 C804 400 408 400 0 400 C0 268 0 136 0 0 Z " fill="#F4BD26" transform="translate(0,0)"/>
<path d="M0 0 C0.66789551 0.22139648 1.33579102 0.44279297 2.02392578 0.67089844 C24.84118528 8.32756466 44.08297268 19.94780614 62 36 C62.77859375 36.69351563 63.5571875 37.38703125 64.359375 38.1015625 C75.69372311 48.8154171 84.944006 62.15030287 92 76 C92.33870117 76.65436035 92.67740234 77.3087207 93.02636719 77.98291016 C98.34026881 88.35358914 102.08699336 98.73238782 105 110 C105.30808594 111.15113281 105.61617188 112.30226563 105.93359375 113.48828125 C108.02553209 121.52572857 109.15734409 129.24880247 109.23828125 137.546875 C109.246353 138.35755432 109.25442474 139.16823364 109.26274109 140.003479 C109.27651318 141.71795564 109.28726577 143.43245891 109.29516602 145.14697266 C109.3065795 146.86092453 109.32685822 148.57484396 109.35668945 150.28857422 C109.64026197 166.6407281 107.18557952 181.93701121 101.875 197.4375 C101.58278564 198.29674072 101.29057129 199.15598145 100.98950195 200.04125977 C93.34825839 221.65630186 81.1893247 239.09863377 66 256 C65.09701172 257.01320313 65.09701172 257.01320313 64.17578125 258.046875 C38.49517858 285.21527077 -0.34435679 300.88442283 -37.296875 302.25 C-54.82695292 302.5989784 -72.19256236 301.1247269 -89 296 C-89.67063477 295.79922852 -90.34126953 295.59845703 -91.03222656 295.39160156 C-128.01753747 284.0638683 -160.67663005 257.59390452 -179.29394531 223.64013672 C-192.16839526 199.14599091 -198.21744881 174.78367525 -198.3125 147.25 C-198.31635712 146.55643402 -198.32021423 145.86286804 -198.32418823 145.14828491 C-198.36078456 131.7846904 -197.22728655 118.68815684 -193.4375 105.8125 C-193.1806543 104.93376221 -192.92380859 104.05502441 -192.65917969 103.1496582 C-180.36002621 62.85374745 -152.52399492 31.28307221 -116 11 C-81.34191085 -7.23172548 -37.5284229 -12.65898993 0 0 Z " fill="#F0BA26" transform="translate(255,52)"/>
<path d="M0 0 C4.61414512 3.72036682 8.81871095 7.80655604 13 12 C13.66 12.60070312 14.32 13.20140625 15 13.8203125 C25.40901071 23.41009552 32.28733164 36.23937085 38 49 C38.40992188 49.90878906 38.81984375 50.81757813 39.2421875 51.75390625 C49.00301985 75.92899102 49.68221301 105.79446747 40 130 C-31.61 130 -103.22 130 -177 130 C-187.2722925 101.75119563 -185.47078874 70.33639465 -173 43 C-168.43245491 33.90441067 -162.66415289 25.68263663 -156 18 C-155.27554688 17.11957031 -154.55109375 16.23914063 -153.8046875 15.33203125 C-115.78191638 -29.15335609 -46.21711117 -34.16680932 0 0 Z " fill="#F4BD26" transform="translate(279,107)"/>
<path d="M0 0 C0.66789551 0.22139648 1.33579102 0.44279297 2.02392578 0.67089844 C24.84118528 8.32756466 44.08297268 19.94780614 62 36 C62.77859375 36.69351563 63.5571875 37.38703125 64.359375 38.1015625 C75.69372311 48.8154171 84.944006 62.15030287 92 76 C92.33870117 76.65436035 92.67740234 77.3087207 93.02636719 77.98291016 C98.34026881 88.35358914 102.08699336 98.73238782 105 110 C105.30808594 111.15113281 105.61617188 112.30226563 105.93359375 113.48828125 C108.02553209 121.52572857 109.15734409 129.24880247 109.23828125 137.546875 C109.246353 138.35755432 109.25442474 139.16823364 109.26274109 140.003479 C109.27651318 141.71795564 109.28726577 143.43245891 109.29516602 145.14697266 C109.3065795 146.86092453 109.32685822 148.57484396 109.35668945 150.28857422 C109.64026197 166.6407281 107.18557952 181.93701121 101.875 197.4375 C101.58278564 198.29674072 101.29057129 199.15598145 100.98950195 200.04125977 C93.34825839 221.65630186 81.1893247 239.09863377 66 256 C65.09701172 257.01320313 65.09701172 257.01320313 64.17578125 258.046875 C38.49517858 285.21527077 -0.34435679 300.88442283 -37.296875 302.25 C-54.82695292 302.5989784 -72.19256236 301.1247269 -89 296 C-89.67063477 295.79922852 -90.34126953 295.59845703 -91.03222656 295.39160156 C-128.01753747 284.0638683 -160.67663005 257.59390452 -179.29394531 223.64013672 C-192.16839526 199.14599091 -198.21744881 174.78367525 -198.3125 147.25 C-198.31635712 146.55643402 -198.32021423 145.86286804 -198.32418823 145.14828491 C-198.36078456 131.7846904 -197.22728655 118.68815684 -193.4375 105.8125 C-193.1806543 104.93376221 -192.92380859 104.05502441 -192.65917969 103.1496582 C-180.36002621 62.85374745 -152.52399492 31.28307221 -116 11 C-81.34191085 -7.23172548 -37.5284229 -12.65898993 0 0 Z M-142 47 C-142.87011719 47.79535156 -143.74023438 48.59070313 -144.63671875 49.41015625 C-168.24875977 71.74222928 -184.20309358 106.20389413 -185.23828125 138.78125 C-185.91670423 179.47141727 -173.54815066 216.33892085 -145.32177734 246.19360352 C-119.75857659 272.35628151 -85.44011723 287.78414317 -48.85668945 288.2421875 C-8.34158933 288.34013138 25.82300236 275.10902555 55 247 C55.70511719 246.35804688 56.41023437 245.71609375 57.13671875 245.0546875 C71.50924478 231.58591058 81.46251174 213.37034202 88 195 C88.34224609 194.05302246 88.34224609 194.05302246 88.69140625 193.08691406 C100.900546 158.74434812 98.11958354 120.94049822 82.94580078 87.97265625 C76.12225175 73.74078322 66.81462445 61.43995988 56 50 C54.86304688 48.76636719 54.86304688 48.76636719 53.703125 47.5078125 C30.16644318 22.81737176 -4.99403307 8.84560172 -38.73046875 7.7265625 C-78.29546738 6.96926163 -113.23858268 19.44665513 -142 47 Z " fill="#040300" transform="translate(255,52)"/>
<path d="M0 0 C69.63 0 139.26 0 211 0 C195.40487401 31.19025197 173.89386429 53.27597503 140.4375 64.5 C137.64407182 65.42140431 134.84420655 66.24990452 132 67 C130.92177979 67.29040161 130.92177979 67.29040161 129.82177734 67.58666992 C122.57247332 69.29546695 115.32015101 69.33828464 107.91552734 69.31567383 C105.76738091 69.31252547 103.62063239 69.33600865 101.47265625 69.36132812 C92.30035462 69.40353611 83.91608691 68.35740232 75 66 C74.2560498 65.80656006 73.51209961 65.61312012 72.74560547 65.41381836 C53.78386923 60.13895399 38.20879013 49.37586105 24 36 C23.39671875 35.46117187 22.7934375 34.92234375 22.171875 34.3671875 C12.32492868 25.2104477 5.38960994 13.18908473 0 1 C0 0.67 0 0.34 0 0 Z " fill="#F3BD26" transform="translate(105,245)"/>
<path d="M0 0 C24.46622937 20.92697512 41.66945914 50.2975 44.97460938 82.68896484 C45.28480511 88.12861906 45.39080175 93.55384095 45.41210938 99.00146484 C45.41828278 99.66861511 45.42445618 100.33576538 45.43081665 101.02313232 C45.50921936 114.19195203 43.58236087 126.73126586 38.84960938 139.06396484 C38.40174072 140.24841187 38.40174072 140.24841187 37.94482422 141.45678711 C24.92574762 174.83024102 0.66217537 199.31038514 -31.89648438 213.93505859 C-47.2167001 220.5793351 -63.34469877 223.22704337 -79.93481445 223.08007812 C-82.09129759 223.06393935 -84.24591514 223.08007439 -86.40234375 223.09912109 C-99.26318535 223.12022361 -111.46007306 221.1466323 -123.52539062 216.50146484 C-124.32017822 216.20030762 -125.11496582 215.89915039 -125.93383789 215.58886719 C-142.92069762 208.96822543 -156.74505713 199.17713809 -170.02539062 186.68896484 C-170.91097656 185.90005859 -170.91097656 185.90005859 -171.81445312 185.09521484 C-182.64243981 175.03699025 -190.05540164 162.03894022 -196.02539062 148.68896484 C-196.30753418 148.07585449 -196.58967773 147.46274414 -196.88037109 146.83105469 C-209.89721314 118.27377542 -209.95459493 82.83884646 -199.53320312 53.44677734 C-186.87364974 20.9156652 -162.77661313 -4.09192722 -131.08447266 -18.41601562 C-87.86208126 -37.20345775 -36.38730542 -30.07430549 0 0 Z M-113.02539062 -13.31103516 C-113.71133301 -13.09672852 -114.39727539 -12.88242188 -115.10400391 -12.66162109 C-145.86951282 -2.74564426 -169.8661423 19.31480162 -184.77539062 47.68896484 C-192.60192946 64.28662479 -195.26506986 80.21225419 -195.40039062 98.37646484 C-195.41432861 99.57537354 -195.4282666 100.77428223 -195.44262695 102.00952148 C-195.38106186 113.68849929 -193.1231702 123.76155266 -189.02539062 134.68896484 C-117.41539062 134.68896484 -45.80539063 134.68896484 27.97460938 134.68896484 C37.6178638 105.75920156 36.64246542 74.33460564 22.97460938 46.68896484 C12.7778841 27.28084939 -1.58897321 11.45337954 -20.02539062 -0.31103516 C-20.7859375 -0.84083984 -21.54648437 -1.37064453 -22.33007812 -1.91650391 C-47.9412858 -18.91468979 -84.08924173 -22.46636857 -113.02539062 -13.31103516 Z M-186.02539062 142.68896484 C-183.42559372 149.1884571 -181.30359695 154.46225955 -177.46289062 160.06396484 C-177.03161865 160.69971436 -176.60034668 161.33546387 -176.15600586 161.99047852 C-171.66766121 168.4472679 -166.57361667 174.13290232 -161.02539062 179.68896484 C-159.74921875 180.98253906 -159.74921875 180.98253906 -158.44726562 182.30224609 C-138.11954383 201.86919986 -111.20687224 211.83113378 -83.27709961 211.98413086 C-81.8336398 211.99556006 -80.39021914 212.01586541 -78.94702148 212.0456543 C-48.80420925 212.66505085 -20.79876337 199.37659872 0.84204102 178.92407227 C11.22190054 168.73872223 19.57232289 156.19468104 24.97460938 142.68896484 C-44.65539062 142.68896484 -114.28539063 142.68896484 -186.02539062 142.68896484 Z " fill="#040300" transform="translate(291.025390625,102.31103515625)"/>
<path d="M0 0 C55.21414975 0 55.21414975 0 65.3125 8.2890625 C72.55376766 15.63090332 73.33084197 23.14433084 73.3894043 33.06518555 C73.2478366 41.28190712 70.85871265 46.62818508 65.5625 52.875 C58.17647059 59 58.17647059 59 55 59 C55.42821045 59.99217529 55.8564209 60.98435059 56.29760742 62.0065918 C57.91231637 65.74979242 59.52363915 69.49444321 61.1340332 73.23950195 C61.82649478 74.84861256 62.51982848 76.4573482 63.21411133 78.06567383 C67.34756163 87.64274387 71.33123857 97.23325841 75 107 C70.38 107 65.76 107 61 107 C54.03603476 92.5972537 48.05364325 77.80110805 42 63 C32.43 62.67 22.86 62.34 13 62 C13 76.85 13 91.7 13 107 C8.71 107 4.42 107 0 107 C0 71.69 0 36.38 0 0 Z " fill="#050400" transform="translate(429,69)"/>
<path d="M0 0 C3.96 0 7.92 0 12 0 C12 35.31 12 70.62 12 107 C8.04 107 4.08 107 0 107 C-0.33 103.7 -0.66 100.4 -1 97 C-1.56847656 97.54269531 -2.13695312 98.08539063 -2.72265625 98.64453125 C-3.49480469 99.35996094 -4.26695312 100.07539063 -5.0625 100.8125 C-5.81660156 101.52019531 -6.57070313 102.22789062 -7.34765625 102.95703125 C-13.06151139 107.35813027 -18.37599433 108.53742959 -25.375 108.4375 C-26.49926392 108.42505249 -26.49926392 108.42505249 -27.64624023 108.41235352 C-36.66540504 108.13714608 -42.6387146 105.04958818 -49.21484375 98.91796875 C-58.41321744 89.03525216 -60.40182714 77.04886788 -60.2734375 63.953125 C-59.50677154 52.86932569 -55.3540216 42.57453196 -46.8984375 35.15625 C-38.6195506 29.18843047 -29.14556398 26.69089497 -19 28 C-11.59641934 30.01262387 -6.3279128 34.6720872 -1 40 C-0.67 26.8 -0.34 13.6 0 0 Z " fill="#050400" transform="translate(655,69)"/>
<path d="M0 0 C4.95 0 9.9 0 15 0 C22.65496374 19.94674473 30.0643857 39.97962272 37.41308594 60.04101562 C38.18031846 62.13542402 38.94757078 64.22982517 39.71484375 66.32421875 C40.08642609 67.3386203 40.45800842 68.35302185 40.84085083 69.39816284 C43.00408504 75.2988616 45.18093876 81.19418403 47.37890625 87.08203125 C47.62228226 87.73471985 47.86565826 88.38740845 48.1164093 89.05987549 C49.19328555 91.94662601 50.27359464 94.83200894 51.35961914 97.71533203 C51.71789795 98.6742334 52.07617676 99.63313477 52.4453125 100.62109375 C52.90188232 101.83430298 52.90188232 101.83430298 53.36767578 103.07202148 C54 105 54 105 54 107 C49.71 107 45.42 107 41 107 C39.49603227 103.04313253 37.99665953 99.08463077 36.5 95.125 C35.85611328 93.43310547 35.85611328 93.43310547 35.19921875 91.70703125 C34.79316406 90.63066406 34.38710938 89.55429687 33.96875 88.4453125 C33.59169922 87.45031738 33.21464844 86.45532227 32.82617188 85.43017578 C32 83 32 83 32 81 C15.83 81 -0.34 81 -17 81 C-17.99 84.3 -18.98 87.6 -20 91 C-21.03652222 93.89015685 -22.08678684 96.76042797 -23.1875 99.625 C-23.46013672 100.34300781 -23.73277344 101.06101562 -24.01367188 101.80078125 C-24.67268752 103.53503294 -25.33587887 105.267697 -26 107 C-30.29 107 -34.58 107 -39 107 C-37.02068709 100.20489047 -34.82816589 93.55612742 -32.3671875 86.921875 C-31.8428286 85.4971563 -31.8428286 85.4971563 -31.30787659 84.0436554 C-30.1664893 80.94469038 -29.02082903 77.84732514 -27.875 74.75 C-27.07796833 72.58919912 -26.28117818 70.42830914 -25.48461914 68.26733398 C-23.83119546 63.78352463 -22.17587204 59.3004232 -20.51904297 54.81787109 C-18.43576016 49.18111486 -16.35650652 43.54288409 -14.27893066 37.90402222 C-12.70846715 33.64184939 -11.13680683 29.38011871 -9.5647583 25.11853027 C-8.81430709 23.08403506 -8.06410293 21.0494487 -7.31414795 19.01477051 C-6.27181301 16.18779391 -5.22794237 13.36138946 -4.18359375 10.53515625 C-3.87402237 9.69479324 -3.56445099 8.85443024 -3.24549866 7.98860168 C-1.11455655 2.22911309 -1.11455655 2.22911309 0 0 Z " fill="#060501" transform="translate(459,216)"/>
<path d="M0 0 C8.82501178 6.23811553 13.0962393 15.11862371 15.39453125 25.4609375 C15.39453125 29.0909375 15.39453125 32.7209375 15.39453125 36.4609375 C-5.39546875 36.4609375 -26.18546875 36.4609375 -47.60546875 36.4609375 C-43.31255505 51.51797187 -43.31255505 51.51797187 -32.47265625 60.515625 C-26.89868157 63.33759544 -20.92506424 63.26774987 -14.9375 61.8125 C-7.12539802 59.04694499 -3.2557305 54.761461 0.39453125 47.4609375 C4.68453125 47.4609375 8.97453125 47.4609375 13.39453125 47.4609375 C10.0487977 57.49813814 4.4344541 65.86109798 -5.1875 70.78125 C-14.56340062 74.44952302 -27.15800469 75.75180506 -36.66796875 71.8359375 C-38.69140625 70.71875 -38.69140625 70.71875 -40.60546875 69.4609375 C-41.64574219 68.80738281 -41.64574219 68.80738281 -42.70703125 68.140625 C-51.82133455 61.89374296 -56.95625583 53.12542866 -59.60546875 42.4609375 C-61.17205174 30.7463471 -59.74847333 19.01711073 -52.85546875 9.1484375 C-38.76836372 -7.83376179 -19.24411373 -11.36758742 0 0 Z " fill="#070601" transform="translate(571.60546875,103.5390625)"/>
<path d="M0 0 C5.74791085 4.59413312 8.53480122 9.64346617 10.828125 16.5234375 C10.91652588 18.37938478 10.94575204 20.23838867 10.94165039 22.09643555 C10.94153709 23.80786995 10.94153709 23.80786995 10.94142151 25.55387878 C10.93626022 26.78520035 10.93109894 28.01652191 10.92578125 29.28515625 C10.9243663 30.54608597 10.92295135 31.80701569 10.92149353 33.1061554 C10.91684075 36.45495459 10.90785842 39.80368561 10.89678955 43.15246582 C10.88655187 46.57103893 10.88199086 49.98961909 10.87695312 53.40820312 C10.86591599 60.11330254 10.8486472 66.81836067 10.828125 73.5234375 C6.868125 73.5234375 2.908125 73.5234375 -1.171875 73.5234375 C-1.501875 70.2234375 -1.831875 66.9234375 -2.171875 63.5234375 C-3.14125 64.5959375 -4.110625 65.6684375 -5.109375 66.7734375 C-12.68286268 74.13779535 -19.85666903 75.13837633 -30.13598633 75.06884766 C-38.17018645 74.76908182 -43.92356429 72.77174821 -49.671875 67.0234375 C-53.68057067 60.34227805 -53.91078756 54.18728696 -53.171875 46.5234375 C-51.43283405 40.34874146 -46.46250939 36.66845251 -41.171875 33.5234375 C-33.46551142 30.12074031 -25.47750507 28.33467357 -17.234375 26.7734375 C-16.12513672 26.55300781 -15.01589844 26.33257812 -13.87304688 26.10546875 C-9.53651041 25.26072299 -5.60338798 24.5234375 -1.171875 24.5234375 C-2.26651309 17.10582411 -3.35444435 12.36203978 -9.609375 7.7109375 C-15.58632084 5.71862222 -22.36159865 5.29729321 -28.4296875 7.25 C-33.78958333 10.10397051 -36.52647447 14.23263644 -39.171875 19.5234375 C-42.801875 19.5234375 -46.431875 19.5234375 -50.171875 19.5234375 C-49.8459298 11.86372535 -46.16736696 6.36915486 -40.671875 1.1484375 C-29.29309178 -6.24777159 -11.64771436 -7.91876984 0 0 Z " fill="#050300" transform="translate(646.171875,249.4765625)"/>
<path d="M0 0 C7.12636962 4.44626181 11.29011138 9.93273113 14.125 17.8125 C14.76437945 22.38389617 14.71099838 26.86808938 14.61328125 31.4765625 C14.60620651 32.74978363 14.59913177 34.02300476 14.59184265 35.33480835 C14.56874526 38.68587307 14.52399851 42.03516524 14.46832275 45.38574219 C14.4167582 48.81820533 14.39425016 52.2508532 14.36914062 55.68359375 C14.31424841 62.39377284 14.22806369 69.10289491 14.125 75.8125 C10.495 75.8125 6.865 75.8125 3.125 75.8125 C2.795 72.1825 2.465 68.5525 2.125 64.8125 C1.5475 65.67875 0.97 66.545 0.375 67.4375 C-4.61322346 73.25709404 -11.49795311 76.68236493 -19.12109375 77.29296875 C-27.40271382 77.60186166 -36.42320507 77.79069973 -42.89453125 72.0078125 C-48.78899944 65.64514826 -50.36993783 60.37468183 -50.1796875 51.75 C-49.55325566 45.71055452 -46.90134904 42.42234325 -42.3125 38.625 C-33.48374506 32.63023189 -23.15328594 30.84868682 -12.8125 29.0625 C-11.59111328 28.84207031 -10.36972656 28.62164062 -9.11132812 28.39453125 C-0.25293575 26.8125 -0.25293575 26.8125 2.125 26.8125 C1.03036191 19.39488661 -0.05756935 14.65110228 -6.3125 10 C-12.4280184 7.96149387 -19.28920432 7.40936256 -25.390625 9.796875 C-28.88213076 11.89177845 -31.88837846 14.18983719 -33.875 17.8125 C-34.205 19.1325 -34.535 20.4525 -34.875 21.8125 C-38.835 21.8125 -42.795 21.8125 -46.875 21.8125 C-46.59512497 15.23543681 -44.19211148 10.75919023 -39.875 5.8125 C-29.3853187 -2.99133966 -12.70835982 -6.10461997 0 0 Z " fill="#050400" transform="translate(728.875,100.1875)"/>
<path d="M0 0 C4.29 0 8.58 0 13 0 C15.33031161 5.88550599 17.6597846 11.771343 19.98852539 17.6574707 C20.77866697 19.65430375 21.56902632 21.65105064 22.35961914 23.64770508 C24.91276638 30.09597639 27.45952588 36.54672567 30 43 C30.28780334 43.72914612 30.57560669 44.45829224 30.87213135 45.20953369 C31.60199978 47.06143113 32.32664501 48.91538489 33.05078125 50.76953125 C33.62759644 52.24256714 33.62759644 52.24256714 34.21606445 53.74536133 C35 56 35 56 35 58 C35.66 58 36.32 58 37 58 C37.24476074 56.75420166 37.48952148 55.50840332 37.74169922 54.22485352 C39.03453421 48.42519547 41.05469561 42.95997319 43.1328125 37.40234375 C43.52951141 36.32747208 43.92621033 35.2526004 44.33493042 34.14515686 C45.5928587 30.74056649 46.85879221 27.33901864 48.125 23.9375 C48.9836051 21.61803547 49.84168349 19.2983759 50.69921875 16.97851562 C52.79339262 11.31673581 54.89474706 5.65766907 57 0 C61.29 0 65.58 0 70 0 C67.92336192 7.14903539 65.5791885 14.13623786 63.0078125 21.12109375 C62.62533356 22.16743484 62.24285461 23.21377594 61.8487854 24.29182434 C60.61099352 27.67500031 59.36864237 31.05647055 58.125 34.4375 C57.70126099 35.58996216 57.27752197 36.74242432 56.84094238 37.92980957 C56.41422241 39.0902478 55.98750244 40.25068604 55.54785156 41.44628906 C55.12064819 42.60804657 54.69344482 43.76980408 54.2532959 44.96676636 C53.392527 47.3070504 52.53128111 49.64715906 51.66955566 51.98709106 C49.41827321 58.10790745 47.19011832 64.23573179 45.00643921 70.3809967 C43.86003337 73.60503357 42.70094495 76.8244258 41.53997803 80.04324341 C41.02011233 81.49545729 40.50646446 82.9499146 39.99957275 84.40670776 C37.27352537 92.23300201 34.60899558 99.58468213 28 105 C25.23434618 105.92188461 23.61716298 106.11785222 20.76953125 106.09765625 C19.96708984 106.09443359 19.16464844 106.09121094 18.33789062 106.08789062 C17.50451172 106.07951172 16.67113281 106.07113281 15.8125 106.0625 C14.96751953 106.05798828 14.12253906 106.05347656 13.25195312 106.04882812 C11.16793845 106.03705403 9.08396023 106.0191189 7 106 C7 102.7 7 99.4 7 96 C7.74765625 95.95101562 8.4953125 95.90203125 9.265625 95.8515625 C10.74289062 95.73941406 10.74289062 95.73941406 12.25 95.625 C13.71179688 95.52058594 13.71179688 95.52058594 15.203125 95.4140625 C18.88780657 94.87923188 18.88780657 94.87923188 22 93 C23.30214475 90.58005909 24.33228097 88.35517343 25.3125 85.8125 C25.58900391 85.16474609 25.86550781 84.51699219 26.15039062 83.84960938 C26.40626953 83.20443359 26.66214844 82.55925781 26.92578125 81.89453125 C27.15692627 81.31550049 27.38807129 80.73646973 27.6262207 80.13989258 C28.63663551 74.35525129 26.42278247 68.89223024 24.296875 63.6015625 C24.02245575 62.90109802 23.7480365 62.20063354 23.46530151 61.47894287 C22.56719651 59.19147033 21.6586033 56.90832028 20.75 54.625 C20.12346451 53.03364983 19.49766033 51.44201156 18.87255859 49.85009766 C16.92470927 44.89621836 14.96320421 39.94781014 13 35 C12.35504527 33.37308571 11.71018741 31.74613301 11.06542969 30.11914062 C10.75174438 29.32758575 10.43805908 28.53603088 10.11486816 27.7204895 C8.90548068 24.6670663 7.69796762 21.61290293 6.49035645 18.55877686 C5.63463651 16.39931828 4.77417324 14.24179566 3.91308594 12.08447266 C3.39245912 10.77250815 2.87194488 9.46049897 2.3515625 8.1484375 C1.89604004 7.00552246 1.44051758 5.86260742 0.97119141 4.68505859 C0 2 0 2 0 0 Z " fill="#040300" transform="translate(698,246)"/>
<path d="M0 0 C6.26755084 4.09403321 10.51163226 10.07349888 12.58984375 17.25390625 C14.26248015 26.97178547 14.30978145 37.36242956 9.0625 46 C6.625 48.875 6.625 48.875 4.0625 51 C3.2375 51.721875 2.4125 52.44375 1.5625 53.1875 C-4.20285593 57.36738305 -9.99612721 58.02352682 -16.9375 57 C-24.13010062 54.3826353 -28.30512909 50.12846149 -31.8203125 43.42578125 C-36.0649947 34.20918108 -36.51514212 23.73714806 -33.3125 14.0625 C-30.59620782 7.58152216 -26.52502257 1.93390841 -20.11328125 -1.3359375 C-13.49353523 -3.35632677 -6.20790657 -3.09870125 0 0 Z " fill="#F2BB26" transform="translate(641.9375,110)"/>
<path d="M0 0 C7.14594698 4.33642937 11.38752152 9.56117448 14.0625 17.4375 C14.0625 18.7575 14.0625 20.0775 14.0625 21.4375 C10.4325 21.4375 6.8025 21.4375 3.0625 21.4375 C2.52625 20.2 1.99 18.9625 1.4375 17.6875 C-0.60904401 13.57256275 -2.82833807 11.62322443 -6.9375 9.4375 C-10.50190418 8.24936527 -13.49224782 8.19562047 -17.25 8.125 C-18.54550781 8.08761719 -19.84101562 8.05023438 -21.17578125 8.01171875 C-25.49927855 8.50108657 -27.59450251 9.71151566 -30.9375 12.4375 C-32.48336876 15.52923752 -32.23109521 18.03179552 -31.9375 21.4375 C-29.10120886 25.03818166 -26.41008592 26.24776515 -22.0625 27.5 C-20.91136719 27.83386719 -19.76023437 28.16773438 -18.57421875 28.51171875 C-15.0224473 29.41587539 -11.47499028 30.129261 -7.875 30.8125 C0.12069628 32.47232088 8.67233324 35.18118057 14.3125 41.4375 C17.79723591 47.26273018 16.8326179 55.23887647 15.65625 61.65234375 C13.63538811 67.51550227 8.34080086 71.52064227 3.171875 74.54296875 C-6.18909987 78.46794443 -20.41488611 77.93288169 -29.83203125 74.48046875 C-38.55790368 70.15800504 -44.7057839 63.62237734 -47.9375 54.4375 C-47.9375 53.1175 -47.9375 51.7975 -47.9375 50.4375 C-43.9775 50.4375 -40.0175 50.4375 -35.9375 50.4375 C-35.215625 51.84 -34.49375 53.2425 -33.75 54.6875 C-31.02836292 59.55739556 -28.49536651 62.4246289 -23.21484375 64.515625 C-19.65703233 65.51639198 -16.62893699 65.73785712 -12.9375 65.75 C-11.1740625 65.77513672 -11.1740625 65.77513672 -9.375 65.80078125 C-5.61171788 65.40307075 -3.2254079 64.2487167 0.0625 62.4375 C0.7225 62.4375 1.3825 62.4375 2.0625 62.4375 C3.86710343 58.60271771 4.66685553 55.6679887 4.0625 51.4375 C1.36983622 46.4510856 -1.33749075 45.02664564 -6.6875 43.3125 C-10.50699446 42.25466044 -14.33971826 41.3398608 -18.21484375 40.515625 C-37.96850727 36.28535725 -37.96850727 36.28535725 -43.5625 28.25 C-46.04939187 22.8972613 -45.85279786 16.76689595 -44.3125 11.1640625 C-41.62673853 4.90527908 -36.67981257 1.43248281 -30.8125 -1.6953125 C-21.48742059 -4.50804026 -8.77801216 -4.1457866 0 0 Z " fill="#050300" transform="translate(971.9375,247.5625)"/>
<path d="M0 0 C5.53061027 4.31858292 8.61466578 9.90938143 10.0234375 16.74609375 C10.10969992 18.67063995 10.14115088 20.59794014 10.13696289 22.52441406 C10.13688736 23.68531555 10.13681183 24.84621704 10.13673401 26.04229736 C10.13157272 27.29033142 10.12641144 28.53836548 10.12109375 29.82421875 C10.1196788 31.10592957 10.11826385 32.38764038 10.11680603 33.70819092 C10.11299651 37.10793015 10.10317964 40.50762635 10.09210205 43.90734863 C10.08185424 47.37963275 10.0773012 50.85192385 10.07226562 54.32421875 C10.06155591 61.13152983 10.04397183 67.93880529 10.0234375 74.74609375 C6.0634375 74.74609375 2.1034375 74.74609375 -1.9765625 74.74609375 C-1.98067139 73.06128906 -1.98478027 71.37648438 -1.98901367 69.640625 C-2.0084785 64.04848732 -2.05089257 58.45683214 -2.10865307 52.86495972 C-2.14281657 49.47743023 -2.16801618 46.09034657 -2.17211914 42.70263672 C-2.18142845 38.7998894 -2.22246824 34.89854638 -2.26953125 30.99609375 C-2.2655986 29.79057861 -2.26166595 28.58506348 -2.25761414 27.34301758 C-2.37860443 20.31770261 -3.09536717 15.06534142 -7.9765625 9.74609375 C-12.86061111 6.8341531 -18.45720599 7.11961507 -23.9765625 7.74609375 C-28.74730236 9.23249964 -32.2577226 12.3858728 -34.89761353 16.56242371 C-38.46659339 23.78563315 -38.29227518 32.76670947 -38.390625 40.6640625 C-38.40999115 41.6473201 -38.4293573 42.6305777 -38.4493103 43.64363098 C-38.50840827 46.74020096 -38.55520851 49.83680954 -38.6015625 52.93359375 C-38.6398067 55.05144723 -38.67886201 57.16928622 -38.71875 59.28710938 C-38.8140511 64.43998454 -38.89833493 69.59293227 -38.9765625 74.74609375 C-42.9365625 74.74609375 -46.8965625 74.74609375 -50.9765625 74.74609375 C-50.9765625 49.33609375 -50.9765625 23.92609375 -50.9765625 -2.25390625 C-47.0165625 -2.25390625 -43.0565625 -2.25390625 -38.9765625 -2.25390625 C-38.6465625 1.04609375 -38.3165625 4.34609375 -37.9765625 7.74609375 C-37.4609375 7.02421875 -36.9453125 6.30234375 -36.4140625 5.55859375 C-26.99688131 -5.30738455 -12.35221394 -7.83608829 0 0 Z " fill="#050400" transform="translate(570.9765625,248.25390625)"/>
<path d="M0 0 C4.53828813 3.78190677 8.35238531 8.69892112 10.625 14.1875 C10.625 15.5075 10.625 16.8275 10.625 18.1875 C6.52591138 18.66506372 2.70702055 18.87830348 -1.375 18.1875 C-3.49101488 16.38114584 -4.64795711 14.60757148 -6.07421875 12.23046875 C-8.5362764 8.36363346 -12.07677522 6.62024159 -16.375 5.1875 C-23.74161274 4.47328547 -30.10320383 4.44836242 -36.4375 8.5703125 C-42.46771825 13.6035995 -45.72057931 19.38790852 -46.6105957 27.27539062 C-47.19044654 36.61151142 -47.44877272 45.52228202 -41.375 53.1875 C-36.89461015 58.00211248 -32.49411385 61.65076698 -25.796875 62.5234375 C-18.57593028 62.62900687 -12.33331412 61.71998081 -6.77734375 56.76171875 C-4.07868521 53.71687661 -2.9102083 51.02552075 -1.375 47.1875 C2.915 47.1875 7.205 47.1875 11.625 47.1875 C8.97965882 57.35117925 6.04567204 63.00679899 -2.80078125 68.828125 C-9.28086471 72.25008106 -14.91427647 73.72402519 -22.25 73.625 C-23.43408447 73.61364014 -23.43408447 73.61364014 -24.64208984 73.60205078 C-30.87525784 73.42637828 -35.95818618 72.41946512 -41.375 69.1875 C-42.44621094 68.55134766 -42.44621094 68.55134766 -43.5390625 67.90234375 C-48.92224501 64.28331281 -52.30939719 59.85614425 -55.375 54.1875 C-55.79007813 53.43339844 -56.20515625 52.67929687 -56.6328125 51.90234375 C-61.15375001 41.92782778 -60.93769141 29.0215744 -58.52734375 18.48046875 C-54.45602933 7.72943848 -46.75022507 -0.02268561 -36.375 -4.8125 C-23.24272971 -9.6068209 -11.85039825 -6.36410276 0 0 Z " fill="#060501" transform="translate(905.375,250.8125)"/>
<path d="M0 0 C3.63 0 7.26 0 11 0 C11 9.57 11 19.14 11 29 C16.94 29 22.88 29 29 29 C29 32.3 29 35.6 29 39 C23.39 39 17.78 39 12 39 C12.09341945 46.35089585 12.19948807 53.70145782 12.31738281 61.05200195 C12.35571119 63.55357841 12.39055718 66.05521072 12.421875 68.55688477 C12.46744146 72.14880357 12.52545024 75.74033662 12.5859375 79.33203125 C12.59748871 80.45398392 12.60903992 81.57593658 12.62094116 82.73188782 C12.64081085 83.77274033 12.66068054 84.81359283 12.68115234 85.88598633 C12.69447601 86.80309891 12.70779968 87.72021149 12.7215271 88.66511536 C12.85377574 91.27061139 12.85377574 91.27061139 15 94 C18.34613512 94.58687784 18.34613512 94.58687784 22.125 94.6875 C23.40632812 94.75324219 24.68765625 94.81898438 26.0078125 94.88671875 C26.99523437 94.92410156 27.98265625 94.96148437 29 95 C29 98.63 29 102.26 29 106 C26.14479219 106.10876982 23.29379439 106.18766466 20.4375 106.25 C19.63763672 106.28351563 18.83777344 106.31703125 18.01367188 106.3515625 C12.13602109 106.44752415 8.81350456 105.4160355 4 102 C2.125 99.375 2.125 99.375 1 97 C0.67 96.34 0.34 95.68 0 95 C-0.0908238 93.21268076 -0.11753799 91.42194511 -0.11352539 89.63232422 C-0.11344986 88.51131317 -0.11337433 87.39030212 -0.11329651 86.23532104 C-0.10813522 85.02071198 -0.10297394 83.80610291 -0.09765625 82.5546875 C-0.0962413 81.31453888 -0.09482635 80.07439026 -0.09336853 78.79666138 C-0.08871096 75.49881867 -0.07972439 72.20102454 -0.06866455 68.90319824 C-0.05843731 65.53833613 -0.05386809 62.17346692 -0.04882812 58.80859375 C-0.03778268 52.20570761 -0.02050971 45.60286325 0 39 C-4.29 39 -8.58 39 -13 39 C-13 35.7 -13 32.4 -13 29 C-8.71 29 -4.42 29 0 29 C0 19.43 0 9.86 0 0 Z " fill="#050400" transform="translate(783,217)"/>
<path d="M0 0 C4.929375 -0.061875 9.85875 -0.12375 14.9375 -0.1875 C16.47398193 -0.21481201 18.01046387 -0.24212402 19.59350586 -0.27026367 C35.87036678 -0.36891131 35.87036678 -0.36891131 42.375 4.9375 C42.91125 5.618125 43.4475 6.29875 44 7 C44.556875 7.680625 45.11375 8.36125 45.6875 9.0625 C48.7857297 13.63607717 48.43625733 18.69220254 48 24 C46.25680961 29.90747854 43.90255453 32.56821183 39 36 C34.72998772 38.18262974 30.77171805 38.26314835 26.07421875 38.1953125 C25.41087524 38.19329834 24.74753174 38.19128418 24.06408691 38.18920898 C21.60515346 38.17880824 19.1463192 38.15088592 16.6875 38.125 C8.4271875 38.063125 8.4271875 38.063125 0 38 C0 25.46 0 12.92 0 0 Z " fill="#F3BC26" transform="translate(442,81)"/>
<path d="M0 0 C3.96 0 7.92 0 12 0 C12.00808685 1.14592117 12.01617371 2.29184235 12.02450562 3.4724884 C12.10190651 14.25858825 12.18963038 25.04456101 12.28752708 35.83049488 C12.33752621 41.37598469 12.38385593 46.92145511 12.421875 52.46704102 C12.4586821 57.81633453 12.50502956 63.16546724 12.55806351 68.51462364 C12.57663181 70.55798212 12.59173071 72.60137509 12.60334396 74.64478493 C12.62016473 77.50139548 12.6491896 80.35763578 12.68115234 83.21411133 C12.68331253 84.06359344 12.68547272 84.91307556 12.68769836 85.78829956 C12.74374728 89.69556914 12.78411385 91.67617078 15 95 C17.42521494 95.58189266 17.42521494 95.58189266 20.125 95.6875 C21.73375 95.790625 23.3425 95.89375 25 96 C25 99.63 25 103.26 25 107 C9.7885995 107.75951514 9.7885995 107.75951514 4 103 C0.90767667 98.87690223 -0.12706153 95.04202691 -0.12025452 89.95037842 C-0.12162918 89.15394928 -0.12300385 88.35752014 -0.12442017 87.53695679 C-0.12082489 86.67236847 -0.11722961 85.80778015 -0.11352539 84.91699219 C-0.11367142 83.99957245 -0.11381744 83.08215271 -0.1139679 82.13693237 C-0.11327166 79.10688913 -0.10549275 76.07690749 -0.09765625 73.046875 C-0.09579104 70.94508905 -0.09436762 68.84330266 -0.09336853 66.74151611 C-0.08955144 61.21116942 -0.07972801 55.68084901 -0.06866455 50.1505127 C-0.05843309 44.50659541 -0.05386719 38.86267388 -0.04882812 33.21875 C-0.03810505 22.14582179 -0.02103829 11.07291308 0 0 Z " fill="#060501" transform="translate(671,216)"/>
<path d="M0 0 C2.24826423 2.24826423 2.80810497 3.79740033 3.87939453 6.76928711 C4.239617 7.76049057 4.59983948 8.75169403 4.97097778 9.77293396 C5.35438324 10.84688919 5.7377887 11.92084442 6.1328125 13.02734375 C6.52951141 14.12720108 6.92621033 15.22705841 7.33493042 16.36024475 C8.17314581 18.68863575 9.00852838 21.01804819 9.84130859 23.34838867 C11.11944802 26.92197705 12.4086543 30.49142958 13.69921875 34.06054688 C14.51108343 36.32007304 15.3223031 38.57983108 16.1328125 40.83984375 C16.52026642 41.91177475 16.90772034 42.98370575 17.30691528 44.08811951 C17.83779251 45.57965294 17.83779251 45.57965294 18.37939453 47.10131836 C18.69313019 47.97686874 19.00686584 48.85241913 19.33010864 49.75450134 C20 52 20 52 20 55 C7.13 55 -5.74 55 -19 55 C-17.03004868 47.77684515 -14.99629789 40.81822873 -12.4609375 33.80859375 C-12.13461334 32.89666763 -11.80828918 31.98474152 -11.47207642 31.04518127 C-10.78996239 29.14132336 -10.10589425 27.23816449 -9.41992188 25.33569336 C-8.36680498 22.41477031 -7.31962378 19.49177112 -6.2734375 16.56835938 C-5.60710906 14.71081614 -4.94045439 12.85338989 -4.2734375 10.99609375 C-3.80313614 9.68529091 -3.80313614 9.68529091 -3.32333374 8.3480072 C-2.88750473 7.14018333 -2.88750473 7.14018333 -2.44287109 5.90795898 C-2.06006485 4.84519997 -2.06006485 4.84519997 -1.66952515 3.76097107 C-1 2 -1 2 0 0 Z " fill="#EFB926" transform="translate(466,230)"/>
<path d="M0 0 C3.96 0 7.92 0 12 0 C12 25.41 12 50.82 12 77 C8.04 77 4.08 77 0 77 C0 51.59 0 26.18 0 0 Z " fill="#040300" transform="translate(822,246)"/>
<path d="M0 0 C0.52905504 8.0680893 -0.43244892 15.74370262 -5.80078125 22.1484375 C-12.29872975 28.1290736 -18.52248516 30.57179061 -27.34765625 30.28125 C-32.66392204 29.71752226 -35.83900651 28.33960787 -39.4375 24.1875 C-41.17989898 20.63300607 -41.64886407 18.89318443 -41 15 C-38.32566461 9.42846794 -34.59410232 7.16245374 -29 5 C-24.78712694 3.86743929 -20.53807877 3.04371889 -16.25 2.25 C-15.12722656 2.02957031 -14.00445313 1.80914062 -12.84765625 1.58203125 C-8.46829346 0.73964486 -4.47208143 0 0 0 Z " fill="#F0BA26" transform="translate(645,284)"/>
<path d="M0 0 C-0.53473485 8.99829686 -1.82467662 16.61209215 -8.15234375 23.390625 C-14.45231892 28.8781298 -20.93493317 30.79910211 -29.22265625 30.42578125 C-33.38923374 29.78702324 -35.67597662 28.6014096 -39 26 C-41.56700431 21.84928456 -41.82483524 17.75343193 -41 13 C-35.23576287 5.20132624 -26.40291964 4.02093633 -17.4375 2.3125 C-16.31408203 2.08755859 -15.19066406 1.86261719 -14.03320312 1.63085938 C-9.2834047 0.70234857 -4.85540792 -0.14008646 0 0 Z " fill="#F0BA26" transform="translate(732,137)"/>
<path d="M0 0 C6.64404032 3.05021851 11.1319959 7.31729596 14.453125 13.80859375 C15.078125 16.12109375 15.078125 16.12109375 15.078125 20.12109375 C-1.091875 20.12109375 -17.261875 20.12109375 -33.921875 20.12109375 C-31.82127005 11.71867397 -30.01686871 7.02001798 -22.921875 2.12109375 C-15.74138819 -2.02149479 -7.94129944 -2.38875986 0 0 Z " fill="#F1BB26" transform="translate(558.921875,108.87890625)"/>
<path d="M0 0 C3.46145669 0.86536417 4.94931405 2.62635769 6.9375 5.484375 C7.55054266 9.16263095 7.19872201 10.95005726 5.5625 14.296875 C3.9375 16.484375 3.9375 16.484375 1.9375 17.484375 C-4.91332873 17.92636395 -4.91332873 17.92636395 -8.5 16.546875 C-11.05363866 13.17607197 -11.47095614 9.6491689 -11.0625 5.484375 C-8.1623137 0.90020955 -5.23598502 -0.35699898 0 0 Z " fill="#070501" transform="translate(830.0625,214.515625)"/>
</svg>
