<svg version="1.1" id="Layer_1" xmlns="http://www.w3.org/2000/svg" xmlns:xlink="http://www.w3.org/1999/xlink" x="0px" y="0px"
	 width="100%" viewBox="0 0 1200 400" enable-background="new 0 0 1200 400" xml:space="preserve">
<path fill="#010101" opacity="1.000000" stroke="none" 
	d="
M792.000000,401.000000 
	C528.000000,401.000000 264.500000,401.000000 1.000000,401.000000 
	C1.000000,267.666656 1.000000,134.333328 1.000000,1.000000 
	C401.000000,1.000000 801.000000,1.000000 1201.000000,1.000000 
	C1201.000000,134.333328 1201.000000,267.666656 1201.000000,401.000000 
	C1064.833374,401.000000 928.666687,401.000000 792.000000,401.000000 
M109.256584,316.240784 
	C146.582306,348.476746 189.849823,360.919189 238.243668,352.601898 
	C313.815063,339.613739 364.903870,273.796906 365.321228,204.141174 
	C365.567749,162.997360 352.844910,126.660843 324.749329,96.736176 
	C285.323761,54.744003 236.246628,39.304222 179.956848,50.351223 
	C107.322006,64.605988 50.166855,132.450150 58.346436,216.189240 
	C62.208286,255.725204 79.299118,288.973602 109.256584,316.240784 
M400.148346,167.485718 
	C400.148346,171.584686 400.148346,175.683670 400.148346,179.686707 
	C404.850037,179.686707 408.925781,179.686707 413.425598,179.686707 
	C413.425598,164.630188 413.425598,149.893677 413.425598,135.034363 
	C421.685852,135.034363 429.524323,135.278625 437.336334,134.930252 
	C441.183228,134.758713 442.770325,136.239670 444.130035,139.608246 
	C449.593109,153.142151 455.358246,166.554108 460.928741,179.813538 
	C465.775177,179.813538 470.211334,179.813538 475.091583,179.813538 
	C468.256134,164.004669 461.561462,148.521469 454.855774,133.012680 
	C455.526215,132.538361 455.881836,132.212860 456.296295,132.004211 
	C470.522736,124.842186 476.229523,112.457489 472.977386,95.777214 
	C470.499359,83.067314 460.306122,74.608292 445.096558,73.897713 
	C430.636108,73.222145 416.130859,73.500969 401.645081,73.394325 
	C401.208679,73.391113 400.769470,73.769699 400.148346,74.054192 
	C400.148346,104.862320 400.148346,135.675812 400.148346,167.485718 
M986.158325,300.217041 
	C986.522095,301.668640 986.805176,303.146240 987.262390,304.567810 
	C991.196594,316.801361 998.690918,325.644257 1011.626648,328.497406 
	C1024.099243,331.248352 1035.082153,328.510468 1043.353394,318.026154 
	C1043.603394,317.709290 1044.054688,317.551331 1045.256226,316.771149 
	C1044.835815,322.912079 1044.795776,328.353577 1044.015503,333.686707 
	C1042.998169,340.640686 1038.481812,345.400055 1031.861206,346.673920 
	C1025.961426,347.809113 1019.658020,347.702484 1013.635742,347.105499 
	C1007.491333,346.496429 1003.048340,342.729675 1000.551331,336.837555 
	C1000.084961,335.737122 998.745728,334.382111 997.691467,334.271942 
	C994.474609,333.935791 991.200195,334.149933 987.926025,334.149933 
	C988.551575,341.425293 991.533020,347.227264 996.941589,351.251617 
	C1008.404419,359.780945 1021.325378,360.111053 1034.588135,357.290985 
	C1046.717163,354.712006 1054.098511,346.753937 1055.979370,334.594269 
	C1056.536743,330.991699 1056.844727,327.314178 1056.857178,323.669617 
	C1056.935059,300.860474 1056.900879,278.050964 1056.887573,255.241577 
	C1056.886719,253.813644 1056.746826,252.385788 1056.681641,251.147339 
	C1052.470581,251.147339 1048.739258,251.147339 1044.572998,251.147339 
	C1044.572998,254.851624 1044.572998,258.190399 1044.572998,262.373779 
	C1035.130005,250.074417 1023.435730,246.893494 1009.794189,250.768936 
	C995.888794,254.719284 988.875610,265.154236 986.448730,278.553864 
	C985.227783,285.295074 986.112915,292.417725 986.158325,300.217041 
M464.212433,223.214630 
	C441.245575,215.038788 416.918671,222.111115 405.247070,240.550430 
	C397.959564,252.063507 395.636810,264.907715 396.239014,278.310486 
	C397.781067,312.632019 419.814545,332.273346 452.878174,328.966339 
	C471.442505,327.109589 485.765747,313.565979 487.612000,295.943359 
	C483.174927,295.943359 478.755310,295.943359 474.363281,295.943359 
	C469.303009,307.974335 466.723541,311.436005 460.492676,314.589020 
	C443.475311,323.200348 421.868774,315.790283 413.947510,298.393799 
	C408.364716,286.133026 407.776428,273.283905 410.801727,260.288330 
	C415.470306,240.233917 428.755066,230.376068 449.160431,231.909195 
	C461.522003,232.837982 470.460480,238.722610 474.104218,250.637817 
	C478.998444,250.637817 483.384918,250.637817 488.006927,250.637817 
	C485.088348,237.161621 477.249268,228.440979 464.212433,223.214630 
M625.885742,88.504486 
	C625.885742,96.817703 625.885742,105.130928 625.885742,114.488853 
	C609.561646,92.986252 578.969421,99.907837 570.182129,121.068237 
	C566.037720,131.048523 565.051086,141.376358 567.162292,151.901276 
	C569.816284,165.132263 576.452637,175.645309 589.937195,179.749817 
	C603.278931,183.810837 615.312866,181.338913 624.491943,169.851303 
	C624.710144,169.578262 625.260986,169.570999 626.114258,169.288025 
	C626.114258,173.032318 626.114258,176.429306 626.114258,179.657455 
	C630.241760,179.657455 633.968872,179.657455 637.551453,179.657455 
	C637.551453,144.091248 637.551453,108.879135 637.551453,73.668854 
	C633.511108,73.668854 629.803711,73.668854 625.885742,73.668854 
	C625.885742,78.528915 625.885742,83.017815 625.885742,88.504486 
M556.987061,130.652466 
	C552.539307,112.727310 540.670166,102.595863 522.619507,101.316422 
	C506.555664,100.177818 491.998718,109.243675 486.312958,124.766251 
	C480.483124,140.682159 481.719879,156.114914 493.115936,169.290146 
	C503.407410,181.188339 516.981628,183.418839 531.824585,179.913498 
	C541.660522,177.590622 554.128296,166.984909 555.571533,155.054871 
	C553.559998,155.054871 551.522766,155.323898 549.584961,154.999542 
	C545.393555,154.298019 543.061829,155.975479 541.049622,159.672104 
	C538.067993,165.149567 533.085510,168.512878 526.989929,169.998550 
	C511.012573,173.892685 496.748138,162.286774 495.236481,143.773041 
	C516.003845,143.773041 536.738831,143.773041 558.144836,143.773041 
	C557.761047,139.339661 557.421753,135.420334 556.987061,130.652466 
M713.326782,179.951523 
	C713.576477,179.557434 714.044739,179.163055 714.044189,178.769302 
	C714.021179,161.624802 714.399231,144.463348 713.741089,127.341911 
	C713.304565,115.986229 707.489014,107.455940 696.346436,103.515038 
	C689.311768,101.027016 682.035217,100.610641 674.726135,102.392731 
	C662.368042,105.405907 653.323425,115.207382 653.101379,125.839302 
	C656.734558,125.839302 660.364746,125.839302 663.924500,125.839302 
	C669.259888,114.265312 677.937866,109.785378 689.082153,112.738129 
	C698.000671,115.101143 702.432739,121.434982 701.662354,131.003021 
	C696.368469,132.020432 690.912964,132.718582 685.659912,134.156296 
	C676.599426,136.636047 667.247131,138.674744 658.801941,142.590820 
	C651.260254,146.087997 648.816101,153.682022 649.668335,162.051788 
	C650.526733,170.481476 654.865723,176.201691 662.720032,179.297211 
	C675.713135,184.417984 690.774475,180.919525 700.175537,170.619064 
	C700.619934,170.132141 701.201721,169.770584 702.255188,168.916168 
	C702.255188,172.975021 702.255188,176.262665 702.255188,180.004608 
	C705.788208,180.004608 709.074341,180.004608 713.326782,179.951523 
M495.526215,285.898743 
	C495.663971,289.218994 495.604248,292.561340 495.972260,295.855865 
	C498.008331,314.082031 511.525085,327.664886 528.966614,329.145844 
	C548.548828,330.808533 563.842712,320.622650 569.305542,302.279633 
	C575.599426,281.146149 566.367371,259.293365 547.846497,252.102463 
	C524.842529,243.171005 498.084839,255.814545 495.526215,285.898743 
M711.888733,261.685150 
	C701.815063,246.764450 677.917236,246.617416 666.415405,254.487411 
	C659.978027,258.892090 657.080322,265.132874 657.466187,272.876740 
	C657.860596,280.791077 662.364990,285.777771 669.382202,288.578979 
	C673.058899,290.046661 676.981934,290.911163 680.815735,291.968231 
	C687.367981,293.774933 694.067871,295.151337 700.454529,297.416656 
	C704.798279,298.957397 707.289917,302.624969 707.026123,307.586212 
	C706.763733,312.522522 703.860840,315.395905 699.500122,317.142273 
	C685.525452,322.738800 671.928772,317.048004 666.481873,303.210022 
	C662.553528,303.210022 658.582703,303.210022 653.563110,303.210022 
	C655.600464,307.736542 656.890503,312.094635 659.304077,315.700775 
	C668.526123,329.479736 693.476990,333.977264 708.461914,324.863739 
	C716.399963,320.036011 719.513428,312.775543 718.972961,303.750244 
	C718.463623,295.244324 713.451111,289.993622 705.948059,287.125641 
	C701.170593,285.299530 696.052002,284.373749 691.101013,282.991913 
	C685.527100,281.436157 679.666626,280.475159 674.480225,278.070374 
	C667.693237,274.923462 667.825562,266.379944 674.210388,262.454071 
	C684.458740,256.152557 699.827209,260.725800 705.014954,271.466278 
	C705.560913,272.596619 707.200562,273.704041 708.463135,273.878357 
	C711.131104,274.246674 713.885437,273.990479 717.591614,273.990479 
	C715.533752,269.469788 713.901489,265.884033 711.888733,261.685150 
M912.274231,279.499847 
	C912.274231,295.592987 912.274231,311.686096 912.274231,327.695679 
	C916.614502,327.695679 920.342407,327.695679 924.332520,327.695679 
	C924.332520,315.734497 923.917297,304.069916 924.484863,292.453400 
	C924.837219,285.241241 925.808289,277.811890 928.074707,271.003723 
	C930.867798,262.613617 939.678162,258.678864 948.853821,260.122742 
	C956.456177,261.319000 960.343018,266.129333 961.234314,275.850372 
	C961.613525,279.986237 961.680481,284.160431 961.697998,288.317993 
	C961.753479,301.452942 961.718445,314.588287 961.718445,327.754120 
	C965.841919,327.754120 969.599548,327.754120 973.041504,327.754120 
	C973.041504,308.892639 973.478088,290.279358 972.860962,271.701080 
	C972.543396,262.139832 967.621216,254.415222 958.042969,251.113922 
	C947.946106,247.633865 938.332275,248.544342 930.185791,256.260498 
	C928.434753,257.919006 926.969543,259.879211 925.372620,261.700409 
	C924.970215,261.476257 924.567749,261.252136 924.165283,261.027985 
	C924.165283,257.650940 924.165283,254.273911 924.165283,251.158707 
	C919.879761,251.158707 916.156799,251.158707 912.274231,251.158707 
	C912.274231,260.527954 912.274231,269.513885 912.274231,279.499847 
M735.308899,319.092072 
	C739.122864,324.867950 744.601562,327.846558 751.335022,329.006378 
	C763.215881,331.052826 772.180786,326.152008 780.046936,315.857147 
	C780.046936,320.905762 780.046936,324.312012 780.046936,327.729797 
	C784.156311,327.729797 787.889709,327.729797 791.693054,327.729797 
	C791.693054,302.040527 791.693054,276.632782 791.693054,251.017944 
	C787.744568,251.017944 784.020935,251.017944 779.875671,251.017944 
	C779.875671,263.375793 780.316406,275.522247 779.707092,287.615784 
	C779.352783,294.647552 778.211914,301.923645 775.802917,308.495209 
	C772.861633,316.518890 763.772766,320.217285 755.051270,318.546509 
	C747.375793,317.076111 743.505249,312.219971 742.935791,302.596130 
	C742.562500,296.286407 742.678223,289.945129 742.656433,283.617737 
	C742.619263,272.828033 742.646179,262.038147 742.646179,251.036621 
	C738.439636,251.036621 734.702515,251.036621 730.619446,251.036621 
	C730.619446,265.927246 730.585510,280.564636 730.642395,295.201691 
	C730.657288,299.028290 730.527588,302.935242 731.237976,306.657623 
	C732.005066,310.676880 733.678894,314.523041 735.308899,319.092072 
M582.927734,295.500000 
	C582.927734,306.253967 582.927734,317.007935 582.927734,327.684784 
	C587.215698,327.684784 590.942871,327.684784 594.941467,327.684784 
	C594.941467,314.901428 594.582886,302.424469 595.090088,289.982819 
	C595.350281,283.600220 596.327576,276.984436 598.463867,271.003845 
	C601.478882,262.563263 610.654236,258.481079 619.787720,260.175476 
	C627.295837,261.568390 631.325867,266.971802 631.950562,276.729279 
	C632.162964,280.047058 632.097473,283.384735 632.100891,286.713379 
	C632.115112,300.321472 632.106873,313.929565 632.106873,327.770630 
	C636.229248,327.770630 639.959412,327.770630 643.799866,327.770630 
	C643.799866,309.337311 644.315125,291.055328 643.597412,272.821899 
	C643.197571,262.665131 638.439575,254.225082 627.747070,250.873611 
	C616.579712,247.373322 606.733215,249.431030 598.652588,258.236633 
	C597.609009,259.373840 596.719177,260.652069 595.758118,261.864960 
	C595.383057,261.631317 595.008057,261.397705 594.633057,261.164093 
	C594.633057,257.760864 594.633057,254.357666 594.633057,250.984985 
	C590.563599,250.984985 586.953796,250.984985 582.927734,250.984985 
	C582.927734,265.620270 582.927734,280.060150 582.927734,295.500000 
M875.962463,258.230530 
	C875.962463,255.813354 875.962463,253.396194 875.962463,250.601883 
	C869.928833,250.601883 864.511169,250.601883 858.522644,250.601883 
	C858.522644,240.641785 858.522644,231.076248 858.522644,221.536133 
	C854.328247,221.536133 850.727844,221.536133 846.553284,221.536133 
	C846.553284,231.336945 846.553284,240.907730 846.553284,250.967392 
	C842.086792,250.967392 838.194519,250.967392 834.322021,250.967392 
	C834.322021,254.609055 834.322021,257.732513 834.322021,261.354034 
	C838.420959,261.354034 842.340881,261.354034 846.700745,261.354034 
	C846.700745,263.642822 846.695129,265.436493 846.701538,267.230072 
	C846.755005,282.222626 846.653564,297.218140 846.936951,312.206390 
	C847.063782,318.914825 849.326111,325.202362 856.649963,326.780487 
	C862.825867,328.111206 869.334229,327.898895 875.658447,328.366852 
	C875.658447,324.166534 875.658447,321.054504 875.658447,317.423981 
	C873.482422,317.423981 871.521667,317.447449 869.561646,317.420044 
	C860.499878,317.293396 858.796692,315.653198 858.752197,306.567627 
	C858.684387,292.740204 858.717590,278.912140 858.743408,265.084442 
	C858.745728,263.841309 859.007385,262.598633 859.163696,261.223724 
	C863.862854,261.223724 868.197937,261.371216 872.510864,261.127411 
	C873.694824,261.060486 874.812561,259.822601 875.962463,258.230530 
M809.875610,322.547577 
	C815.687073,329.444000 823.476379,327.848602 830.956787,327.902405 
	C830.956787,324.193695 830.956787,320.930939 830.956787,317.700104 
	C818.679138,316.614807 818.267822,316.158966 818.265381,303.689484 
	C818.260376,278.054077 818.263794,252.418640 818.263733,226.783218 
	C818.263733,225.023941 818.263672,223.264664 818.263672,221.546600 
	C813.973022,221.546600 810.365234,221.546600 806.580566,221.546600 
	C806.444702,222.394333 806.256897,223.020233 806.256714,223.646179 
	C806.247986,252.277847 806.130188,280.910706 806.400879,309.539886 
	C806.440125,313.696747 808.348389,317.835938 809.875610,322.547577 
M897.672791,311.497223 
	C897.672791,291.412720 897.672791,271.328217 897.672791,251.008835 
	C893.533203,251.008835 889.789429,251.008835 885.901001,251.008835 
	C885.901001,276.730316 885.901001,302.251587 885.901001,327.699646 
	C889.892883,327.699646 893.633911,327.699646 897.672791,327.699646 
	C897.672791,322.424408 897.672791,317.459717 897.672791,311.497223 
M883.238708,232.138550 
	C884.039795,233.190063 884.696533,234.404724 885.667664,235.264206 
	C889.440613,238.603577 895.413208,238.136963 898.649719,234.362457 
	C901.936035,230.529800 901.398804,225.122513 897.420837,221.994476 
	C893.447266,218.869888 887.223694,219.290314 884.608948,223.505814 
	C883.279297,225.649551 883.504456,228.757690 883.238708,232.138550 
z"/>
<path fill="#FBFBFB" opacity="1.000000" stroke="none" 
	d="
M108.978485,316.020142 
	C79.299118,288.973602 62.208286,255.725204 58.346436,216.189240 
	C50.166855,132.450150 107.322006,64.605988 179.956848,50.351223 
	C236.246628,39.304222 285.323761,54.744003 324.749329,96.736176 
	C352.844910,126.660843 365.567749,162.997360 365.321228,204.141174 
	C364.903870,273.796906 313.815063,339.613739 238.243668,352.601898 
	C189.849823,360.919189 146.582306,348.476746 108.978485,316.020142 
M176.593933,337.027893 
	C195.084564,341.636719 213.817429,342.565491 232.606552,339.757996 
	C311.943237,327.903412 365.175690,251.132385 348.824310,172.401260 
	C329.745056,80.535400 226.941406,32.977978 144.516098,77.887375 
	C71.570663,117.631668 48.726635,211.042618 95.378044,279.643768 
	C115.049408,308.570587 142.224960,327.291534 176.593933,337.027893 
z"/>
<path fill="#FAFAFA" opacity="1.000000" stroke="none" 
	d="
M400.148346,166.987518 
	C400.148346,135.675812 400.148346,104.862320 400.148346,74.054192 
	C400.769470,73.769699 401.208679,73.391113 401.645081,73.394325 
	C416.130859,73.500969 430.636108,73.222145 445.096558,73.897713 
	C460.306122,74.608292 470.499359,83.067314 472.977386,95.777214 
	C476.229523,112.457489 470.522736,124.842186 456.296295,132.004211 
	C455.881836,132.212860 455.526215,132.538361 454.855774,133.012680 
	C461.561462,148.521469 468.256134,164.004669 475.091583,179.813538 
	C470.211334,179.813538 465.775177,179.813538 460.928741,179.813538 
	C455.358246,166.554108 449.593109,153.142151 444.130035,139.608246 
	C442.770325,136.239670 441.183228,134.758713 437.336334,134.930252 
	C429.524323,135.278625 421.685852,135.034363 413.425598,135.034363 
	C413.425598,149.893677 413.425598,164.630188 413.425598,179.686707 
	C408.925781,179.686707 404.850037,179.686707 400.148346,179.686707 
	C400.148346,175.683670 400.148346,171.584686 400.148346,166.987518 
M450.740356,87.519150 
	C438.482147,82.893608 425.841034,85.918449 413.282043,84.942757 
	C413.282043,98.085396 413.282043,110.521828 413.282043,122.686226 
	C424.373138,122.686226 435.355438,123.377563 446.200775,122.456352 
	C454.148895,121.781250 459.226837,116.310097 460.698944,108.125687 
	C462.263397,99.427734 459.157806,92.643936 450.740356,87.519150 
z"/>
<path fill="#F9F9F9" opacity="1.000000" stroke="none" 
	d="
M986.102051,299.792480 
	C986.112915,292.417725 985.227783,285.295074 986.448730,278.553864 
	C988.875610,265.154236 995.888794,254.719284 1009.794189,250.768936 
	C1023.435730,246.893494 1035.130005,250.074417 1044.572998,262.373779 
	C1044.572998,258.190399 1044.572998,254.851624 1044.572998,251.147339 
	C1048.739258,251.147339 1052.470581,251.147339 1056.681641,251.147339 
	C1056.746826,252.385788 1056.886719,253.813644 1056.887573,255.241577 
	C1056.900879,278.050964 1056.935059,300.860474 1056.857178,323.669617 
	C1056.844727,327.314178 1056.536743,330.991699 1055.979370,334.594269 
	C1054.098511,346.753937 1046.717163,354.712006 1034.588135,357.290985 
	C1021.325378,360.111053 1008.404419,359.780945 996.941589,351.251617 
	C991.533020,347.227264 988.551575,341.425293 987.926025,334.149933 
	C991.200195,334.149933 994.474609,333.935791 997.691467,334.271942 
	C998.745728,334.382111 1000.084961,335.737122 1000.551331,336.837555 
	C1003.048340,342.729675 1007.491333,346.496429 1013.635742,347.105499 
	C1019.658020,347.702484 1025.961426,347.809113 1031.861206,346.673920 
	C1038.481812,345.400055 1042.998169,340.640686 1044.015503,333.686707 
	C1044.795776,328.353577 1044.835815,322.912079 1045.256226,316.771149 
	C1044.054688,317.551331 1043.603394,317.709290 1043.353394,318.026154 
	C1035.082153,328.510468 1024.099243,331.248352 1011.626648,328.497406 
	C998.690918,325.644257 991.196594,316.801361 987.262390,304.567810 
	C986.805176,303.146240 986.522095,301.668640 986.102051,299.792480 
M1017.963623,260.046722 
	C1010.742249,261.130310 1005.152954,264.800140 1001.802063,271.239380 
	C995.353638,283.630829 995.241638,296.281036 1002.338135,308.343781 
	C1009.704285,320.864929 1026.202026,322.505127 1036.589478,312.269318 
	C1045.072021,303.910614 1047.764160,288.105438 1042.780029,275.926758 
	C1038.411499,265.252472 1030.375977,259.906647 1017.963623,260.046722 
z"/>
<path fill="#FAFAFA" opacity="1.000000" stroke="none" 
	d="
M464.557220,223.393646 
	C477.249268,228.440979 485.088348,237.161621 488.006927,250.637817 
	C483.384918,250.637817 478.998444,250.637817 474.104218,250.637817 
	C470.460480,238.722610 461.522003,232.837982 449.160431,231.909195 
	C428.755066,230.376068 415.470306,240.233917 410.801727,260.288330 
	C407.776428,273.283905 408.364716,286.133026 413.947510,298.393799 
	C421.868774,315.790283 443.475311,323.200348 460.492676,314.589020 
	C466.723541,311.436005 469.303009,307.974335 474.363281,295.943359 
	C478.755310,295.943359 483.174927,295.943359 487.612000,295.943359 
	C485.765747,313.565979 471.442505,327.109589 452.878174,328.966339 
	C419.814545,332.273346 397.781067,312.632019 396.239014,278.310486 
	C395.636810,264.907715 397.959564,252.063507 405.247070,240.550430 
	C416.918671,222.111115 441.245575,215.038788 464.557220,223.393646 
z"/>
<path fill="#F9F9F9" opacity="1.000000" stroke="none" 
	d="
M625.885742,88.005600 
	C625.885742,83.017815 625.885742,78.528915 625.885742,73.668854 
	C629.803711,73.668854 633.511108,73.668854 637.551453,73.668854 
	C637.551453,108.879135 637.551453,144.091248 637.551453,179.657455 
	C633.968872,179.657455 630.241760,179.657455 626.114258,179.657455 
	C626.114258,176.429306 626.114258,173.032318 626.114258,169.288025 
	C625.260986,169.570999 624.710144,169.578262 624.491943,169.851303 
	C615.312866,181.338913 603.278931,183.810837 589.937195,179.749817 
	C576.452637,175.645309 569.816284,165.132263 567.162292,151.901276 
	C565.051086,141.376358 566.037720,131.048523 570.182129,121.068237 
	C578.969421,99.907837 609.561646,92.986252 625.885742,114.488853 
	C625.885742,105.130928 625.885742,96.817703 625.885742,88.005600 
M617.658936,164.173065 
	C627.238647,153.783005 629.093811,135.893814 621.692749,123.755753 
	C616.688538,115.548660 609.385559,111.159790 599.625000,112.058678 
	C590.208984,112.925842 584.220215,118.539337 580.889954,127.111649 
	C577.247375,136.487915 577.145630,145.974503 580.774292,155.378403 
	C587.028870,171.587601 603.787354,175.842453 617.658936,164.173065 
z"/>
<path fill="#F8F8F8" opacity="1.000000" stroke="none" 
	d="
M557.034790,131.076721 
	C557.421753,135.420334 557.761047,139.339661 558.144836,143.773041 
	C536.738831,143.773041 516.003845,143.773041 495.236481,143.773041 
	C496.748138,162.286774 511.012573,173.892685 526.989929,169.998550 
	C533.085510,168.512878 538.067993,165.149567 541.049622,159.672104 
	C543.061829,155.975479 545.393555,154.298019 549.584961,154.999542 
	C551.522766,155.323898 553.559998,155.054871 555.571533,155.054871 
	C554.128296,166.984909 541.660522,177.590622 531.824585,179.913498 
	C516.981628,183.418839 503.407410,181.188339 493.115936,169.290146 
	C481.719879,156.114914 480.483124,140.682159 486.312958,124.766251 
	C491.998718,109.243675 506.555664,100.177818 522.619507,101.316422 
	C540.670166,102.595863 552.539307,112.727310 557.034790,131.076721 
M503.771851,118.246696 
	C499.725006,122.301399 496.934784,126.949265 496.541718,132.743637 
	C512.847900,132.743637 528.829529,132.743637 544.851746,132.743637 
	C542.211853,113.254829 520.660400,105.467369 503.771851,118.246696 
z"/>
<path fill="#FAFAFA" opacity="1.000000" stroke="none" 
	d="
M712.843628,179.978058 
	C709.074341,180.004608 705.788208,180.004608 702.255188,180.004608 
	C702.255188,176.262665 702.255188,172.975021 702.255188,168.916168 
	C701.201721,169.770584 700.619934,170.132141 700.175537,170.619064 
	C690.774475,180.919525 675.713135,184.417984 662.720032,179.297211 
	C654.865723,176.201691 650.526733,170.481476 649.668335,162.051788 
	C648.816101,153.682022 651.260254,146.087997 658.801941,142.590820 
	C667.247131,138.674744 676.599426,136.636047 685.659912,134.156296 
	C690.912964,132.718582 696.368469,132.020432 701.662354,131.003021 
	C702.432739,121.434982 698.000671,115.101143 689.082153,112.738129 
	C677.937866,109.785378 669.259888,114.265312 663.924500,125.839302 
	C660.364746,125.839302 656.734558,125.839302 653.101379,125.839302 
	C653.323425,115.207382 662.368042,105.405907 674.726135,102.392731 
	C682.035217,100.610641 689.311768,101.027016 696.346436,103.515038 
	C707.489014,107.455940 713.304565,115.986229 713.741089,127.341911 
	C714.399231,144.463348 714.021179,161.624802 714.044189,178.769302 
	C714.044739,179.163055 713.576477,179.557434 712.843628,179.978058 
M668.979309,148.225830 
	C662.437256,152.077927 660.394592,155.990479 661.813782,161.951218 
	C663.036133,167.085175 667.429688,170.220169 674.267212,170.837463 
	C691.131042,172.359894 704.055969,158.384384 701.625977,140.494263 
	C690.945801,142.989182 680.319763,145.471436 668.979309,148.225830 
z"/>
<path fill="#F9F9F9" opacity="1.000000" stroke="none" 
	d="
M495.570190,285.460175 
	C498.084839,255.814545 524.842529,243.171005 547.846497,252.102463 
	C566.367371,259.293365 575.599426,281.146149 569.305542,302.279633 
	C563.842712,320.622650 548.548828,330.808533 528.966614,329.145844 
	C511.525085,327.664886 498.008331,314.082031 495.972260,295.855865 
	C495.604248,292.561340 495.663971,289.218994 495.570190,285.460175 
M525.099915,261.194244 
	C504.489105,269.000275 502.930511,297.451538 515.186157,310.803131 
	C524.679016,321.144867 539.732727,321.623138 549.919312,312.027405 
	C554.990173,307.250641 557.664917,301.211487 558.648865,294.528290 
	C561.922058,272.295166 545.057739,255.358536 525.099915,261.194244 
z"/>
<path fill="#F9F9F9" opacity="1.000000" stroke="none" 
	d="
M712.078979,261.991699 
	C713.901489,265.884033 715.533752,269.469788 717.591614,273.990479 
	C713.885437,273.990479 711.131104,274.246674 708.463135,273.878357 
	C707.200562,273.704041 705.560913,272.596619 705.014954,271.466278 
	C699.827209,260.725800 684.458740,256.152557 674.210388,262.454071 
	C667.825562,266.379944 667.693237,274.923462 674.480225,278.070374 
	C679.666626,280.475159 685.527100,281.436157 691.101013,282.991913 
	C696.052002,284.373749 701.170593,285.299530 705.948059,287.125641 
	C713.451111,289.993622 718.463623,295.244324 718.972961,303.750244 
	C719.513428,312.775543 716.399963,320.036011 708.461914,324.863739 
	C693.476990,333.977264 668.526123,329.479736 659.304077,315.700775 
	C656.890503,312.094635 655.600464,307.736542 653.563110,303.210022 
	C658.582703,303.210022 662.553528,303.210022 666.481873,303.210022 
	C671.928772,317.048004 685.525452,322.738800 699.500122,317.142273 
	C703.860840,315.395905 706.763733,312.522522 707.026123,307.586212 
	C707.289917,302.624969 704.798279,298.957397 700.454529,297.416656 
	C694.067871,295.151337 687.367981,293.774933 680.815735,291.968231 
	C676.981934,290.911163 673.058899,290.046661 669.382202,288.578979 
	C662.364990,285.777771 657.860596,280.791077 657.466187,272.876740 
	C657.080322,265.132874 659.978027,258.892090 666.415405,254.487411 
	C677.917236,246.617416 701.815063,246.764450 712.078979,261.991699 
z"/>
<path fill="#F7F7F7" opacity="1.000000" stroke="none" 
	d="
M912.274231,278.999817 
	C912.274231,269.513885 912.274231,260.527954 912.274231,251.158707 
	C916.156799,251.158707 919.879761,251.158707 924.165283,251.158707 
	C924.165283,254.273911 924.165283,257.650940 924.165283,261.027985 
	C924.567749,261.252136 924.970215,261.476257 925.372620,261.700409 
	C926.969543,259.879211 928.434753,257.919006 930.185791,256.260498 
	C938.332275,248.544342 947.946106,247.633865 958.042969,251.113922 
	C967.621216,254.415222 972.543396,262.139832 972.860962,271.701080 
	C973.478088,290.279358 973.041504,308.892639 973.041504,327.754120 
	C969.599548,327.754120 965.841919,327.754120 961.718445,327.754120 
	C961.718445,314.588287 961.753479,301.452942 961.697998,288.317993 
	C961.680481,284.160431 961.613525,279.986237 961.234314,275.850372 
	C960.343018,266.129333 956.456177,261.319000 948.853821,260.122742 
	C939.678162,258.678864 930.867798,262.613617 928.074707,271.003723 
	C925.808289,277.811890 924.837219,285.241241 924.484863,292.453400 
	C923.917297,304.069916 924.332520,315.734497 924.332520,327.695679 
	C920.342407,327.695679 916.614502,327.695679 912.274231,327.695679 
	C912.274231,311.686096 912.274231,295.592987 912.274231,278.999817 
z"/>
<path fill="#F9F9F9" opacity="1.000000" stroke="none" 
	d="
M735.133057,318.768372 
	C733.678894,314.523041 732.005066,310.676880 731.237976,306.657623 
	C730.527588,302.935242 730.657288,299.028290 730.642395,295.201691 
	C730.585510,280.564636 730.619446,265.927246 730.619446,251.036621 
	C734.702515,251.036621 738.439636,251.036621 742.646179,251.036621 
	C742.646179,262.038147 742.619263,272.828033 742.656433,283.617737 
	C742.678223,289.945129 742.562500,296.286407 742.935791,302.596130 
	C743.505249,312.219971 747.375793,317.076111 755.051270,318.546509 
	C763.772766,320.217285 772.861633,316.518890 775.802917,308.495209 
	C778.211914,301.923645 779.352783,294.647552 779.707092,287.615784 
	C780.316406,275.522247 779.875671,263.375793 779.875671,251.017944 
	C784.020935,251.017944 787.744568,251.017944 791.693054,251.017944 
	C791.693054,276.632782 791.693054,302.040527 791.693054,327.729797 
	C787.889709,327.729797 784.156311,327.729797 780.046936,327.729797 
	C780.046936,324.312012 780.046936,320.905762 780.046936,315.857147 
	C772.180786,326.152008 763.215881,331.052826 751.335022,329.006378 
	C744.601562,327.846558 739.122864,324.867950 735.133057,318.768372 
z"/>
<path fill="#FBFBFB" opacity="1.000000" stroke="none" 
	d="
M582.927734,295.000000 
	C582.927734,280.060150 582.927734,265.620270 582.927734,250.984985 
	C586.953796,250.984985 590.563599,250.984985 594.633057,250.984985 
	C594.633057,254.357666 594.633057,257.760864 594.633057,261.164093 
	C595.008057,261.397705 595.383057,261.631317 595.758118,261.864960 
	C596.719177,260.652069 597.609009,259.373840 598.652588,258.236633 
	C606.733215,249.431030 616.579712,247.373322 627.747070,250.873611 
	C638.439575,254.225082 643.197571,262.665131 643.597412,272.821899 
	C644.315125,291.055328 643.799866,309.337311 643.799866,327.770630 
	C639.959412,327.770630 636.229248,327.770630 632.106873,327.770630 
	C632.106873,313.929565 632.115112,300.321472 632.100891,286.713379 
	C632.097473,283.384735 632.162964,280.047058 631.950562,276.729279 
	C631.325867,266.971802 627.295837,261.568390 619.787720,260.175476 
	C610.654236,258.481079 601.478882,262.563263 598.463867,271.003845 
	C596.327576,276.984436 595.350281,283.600220 595.090088,289.982819 
	C594.582886,302.424469 594.941467,314.901428 594.941467,327.684784 
	C590.942871,327.684784 587.215698,327.684784 582.927734,327.684784 
	C582.927734,317.007935 582.927734,306.253967 582.927734,295.000000 
z"/>
<path fill="#F8F8F8" opacity="1.000000" stroke="none" 
	d="
M875.961548,258.676270 
	C874.812561,259.822601 873.694824,261.060486 872.510864,261.127411 
	C868.197937,261.371216 863.862854,261.223724 859.163696,261.223724 
	C859.007385,262.598633 858.745728,263.841309 858.743408,265.084442 
	C858.717590,278.912140 858.684387,292.740204 858.752197,306.567627 
	C858.796692,315.653198 860.499878,317.293396 869.561646,317.420044 
	C871.521667,317.447449 873.482422,317.423981 875.658447,317.423981 
	C875.658447,321.054504 875.658447,324.166534 875.658447,328.366852 
	C869.334229,327.898895 862.825867,328.111206 856.649963,326.780487 
	C849.326111,325.202362 847.063782,318.914825 846.936951,312.206390 
	C846.653564,297.218140 846.755005,282.222626 846.701538,267.230072 
	C846.695129,265.436493 846.700745,263.642822 846.700745,261.354034 
	C842.340881,261.354034 838.420959,261.354034 834.322021,261.354034 
	C834.322021,257.732513 834.322021,254.609055 834.322021,250.967392 
	C838.194519,250.967392 842.086792,250.967392 846.553284,250.967392 
	C846.553284,240.907730 846.553284,231.336945 846.553284,221.536133 
	C850.727844,221.536133 854.328247,221.536133 858.522644,221.536133 
	C858.522644,231.076248 858.522644,240.641785 858.522644,250.601883 
	C864.511169,250.601883 869.928833,250.601883 875.962463,250.601883 
	C875.962463,253.396194 875.962463,255.813354 875.961548,258.676270 
z"/>
<path fill="#F7F7F7" opacity="1.000000" stroke="none" 
	d="
M809.633728,322.265442 
	C808.348389,317.835938 806.440125,313.696747 806.400879,309.539886 
	C806.130188,280.910706 806.247986,252.277847 806.256714,223.646179 
	C806.256897,223.020233 806.444702,222.394333 806.580566,221.546600 
	C810.365234,221.546600 813.973022,221.546600 818.263672,221.546600 
	C818.263672,223.264664 818.263733,225.023941 818.263733,226.783218 
	C818.263794,252.418640 818.260376,278.054077 818.265381,303.689484 
	C818.267822,316.158966 818.679138,316.614807 830.956787,317.700104 
	C830.956787,320.930939 830.956787,324.193695 830.956787,327.902405 
	C823.476379,327.848602 815.687073,329.444000 809.633728,322.265442 
z"/>
<path fill="#F6F6F6" opacity="1.000000" stroke="none" 
	d="
M897.672791,311.996124 
	C897.672791,317.459717 897.672791,322.424408 897.672791,327.699646 
	C893.633911,327.699646 889.892883,327.699646 885.901001,327.699646 
	C885.901001,302.251587 885.901001,276.730316 885.901001,251.008835 
	C889.789429,251.008835 893.533203,251.008835 897.672791,251.008835 
	C897.672791,271.328217 897.672791,291.412720 897.672791,311.996124 
z"/>
<path fill="#F7F7F7" opacity="1.000000" stroke="none" 
	d="
M883.132690,231.784195 
	C883.504456,228.757690 883.279297,225.649551 884.608948,223.505814 
	C887.223694,219.290314 893.447266,218.869888 897.420837,221.994476 
	C901.398804,225.122513 901.936035,230.529800 898.649719,234.362457 
	C895.413208,238.136963 889.440613,238.603577 885.667664,235.264206 
	C884.696533,234.404724 884.039795,233.190063 883.132690,231.784195 
z"/>
<path fill="#040404" opacity="1.000000" stroke="none" 
	d="
M176.189941,336.950287 
	C142.224960,327.291534 115.049408,308.570587 95.378044,279.643768 
	C48.726635,211.042618 71.570663,117.631668 144.516098,77.887375 
	C226.941406,32.977978 329.745056,80.535400 348.824310,172.401260 
	C365.175690,251.132385 311.943237,327.903412 232.606552,339.757996 
	C213.817429,342.565491 195.084564,341.636719 176.189941,336.950287 
M246.972336,321.553741 
	C310.742523,301.725250 347.614227,240.475204 334.817688,175.628067 
	C319.961548,100.343765 240.062363,55.823448 167.874710,82.606438 
	C120.232597,100.282570 87.166595,145.257294 85.705750,193.380096 
	C84.884743,220.425552 90.345825,245.665283 105.092476,268.463837 
	C135.834274,315.991089 190.913803,336.690491 246.972336,321.553741 
z"/>
<path fill="#040404" opacity="1.000000" stroke="none" 
	d="
M451.085205,87.683823 
	C459.157806,92.643936 462.263397,99.427734 460.698944,108.125687 
	C459.226837,116.310097 454.148895,121.781250 446.200775,122.456352 
	C435.355438,123.377563 424.373138,122.686226 413.282043,122.686226 
	C413.282043,110.521828 413.282043,98.085396 413.282043,84.942757 
	C425.841034,85.918449 438.482147,82.893608 451.085205,87.683823 
z"/>
<path fill="#030303" opacity="1.000000" stroke="none" 
	d="
M1018.395508,260.019226 
	C1030.375977,259.906647 1038.411499,265.252472 1042.780029,275.926758 
	C1047.764160,288.105438 1045.072021,303.910614 1036.589478,312.269318 
	C1026.202026,322.505127 1009.704285,320.864929 1002.338135,308.343781 
	C995.241638,296.281036 995.353638,283.630829 1001.802063,271.239380 
	C1005.152954,264.800140 1010.742249,261.130310 1018.395508,260.019226 
z"/>
<path fill="#030303" opacity="1.000000" stroke="none" 
	d="
M617.401672,164.430588 
	C603.787354,175.842453 587.028870,171.587601 580.774292,155.378403 
	C577.145630,145.974503 577.247375,136.487915 580.889954,127.111649 
	C584.220215,118.539337 590.208984,112.925842 599.625000,112.058678 
	C609.385559,111.159790 616.688538,115.548660 621.692749,123.755753 
	C629.093811,135.893814 627.238647,153.783005 617.401672,164.430588 
z"/>
<path fill="#030303" opacity="1.000000" stroke="none" 
	d="
M504.038635,118.001770 
	C520.660400,105.467369 542.211853,113.254829 544.851746,132.743637 
	C528.829529,132.743637 512.847900,132.743637 496.541718,132.743637 
	C496.934784,126.949265 499.725006,122.301399 504.038635,118.001770 
z"/>
<path fill="#040404" opacity="1.000000" stroke="none" 
	d="
M669.336548,148.089752 
	C680.319763,145.471436 690.945801,142.989182 701.625977,140.494263 
	C704.055969,158.384384 691.131042,172.359894 674.267212,170.837463 
	C667.429688,170.220169 663.036133,167.085175 661.813782,161.951218 
	C660.394592,155.990479 662.437256,152.077927 669.336548,148.089752 
z"/>
<path fill="#020202" opacity="1.000000" stroke="none" 
	d="
M525.494263,261.097778 
	C545.057739,255.358536 561.922058,272.295166 558.648865,294.528290 
	C557.664917,301.211487 554.990173,307.250641 549.919312,312.027405 
	C539.732727,321.623138 524.679016,321.144867 515.186157,310.803131 
	C502.930511,297.451538 504.489105,269.000275 525.494263,261.097778 
z"/>
<path fill="#FAFAFA" opacity="1.000000" stroke="none" 
	d="
M246.592438,321.687378 
	C190.913803,336.690491 135.834274,315.991089 105.092476,268.463837 
	C90.345825,245.665283 84.884743,220.425552 85.705750,193.380096 
	C87.166595,145.257294 120.232597,100.282570 167.874710,82.606438 
	C240.062363,55.823448 319.961548,100.343765 334.817688,175.628067 
	C347.614227,240.475204 310.742523,301.725250 246.592438,321.687378 
M152.790924,102.203461 
	C100.576958,133.639404 86.454407,193.684937 103.282448,237.905228 
	C175.396515,237.905228 247.544205,237.905228 319.647858,237.905228 
	C333.072998,203.536316 327.352386,150.952164 287.951447,115.309486 
	C251.065170,81.941597 196.919525,76.552414 152.790924,102.203461 
M251.493652,308.108368 
	C281.751129,296.677765 303.064636,275.894806 316.883240,246.223785 
	C246.193756,246.223785 176.353821,246.223785 106.033417,246.223785 
	C106.917503,248.164078 107.616028,249.807388 108.402596,251.407425 
	C134.187256,303.858276 195.813416,328.965027 251.493652,308.108368 
z"/>
<path fill="#000000" opacity="1.000000" stroke="none" 
	d="
M153.127136,102.055573 
	C196.919525,76.552414 251.065170,81.941597 287.951447,115.309486 
	C327.352386,150.952164 333.072998,203.536316 319.647858,237.905228 
	C247.544205,237.905228 175.396515,237.905228 103.282448,237.905228 
	C86.454407,193.684937 100.576958,133.639404 153.127136,102.055573 
z"/>
<path fill="#010101" opacity="1.000000" stroke="none" 
	d="
M251.129822,308.255554 
	C195.813416,328.965027 134.187256,303.858276 108.402596,251.407425 
	C107.616028,249.807388 106.917503,248.164078 106.033417,246.223785 
	C176.353821,246.223785 246.193756,246.223785 316.883240,246.223785 
	C303.064636,275.894806 281.751129,296.677765 251.129822,308.255554 
z"/>
</svg>