<?xml version="1.0" encoding="UTF-8"?>
<svg version="1.1" xmlns="http://www.w3.org/2000/svg" width="400" height="400">
<path d="M0 0 C132 0 264 0 400 0 C400 132 400 264 400 400 C268 400 136 400 0 400 C0 268 0 136 0 0 Z " fill="#FCFCFC" transform="translate(0,0)"/>
<path d="M0 0 C132 0 264 0 400 0 C400 132 400 264 400 400 C268 400 136 400 0 400 C0 268 0 136 0 0 Z M103 73 C102.05125 73.72703125 101.1025 74.4540625 100.125 75.203125 C67.2597807 101.15917888 46.01702139 139.84141429 40.39257812 181.22998047 C39.71986019 187.69024812 39.64940502 194.13544268 39.6875 200.625 C39.69031982 201.32409485 39.69313965 202.0231897 39.69604492 202.74346924 C39.89855171 236.32425339 49.4509461 270.92811364 70 298 C70.93199219 299.24330078 70.93199219 299.24330078 71.8828125 300.51171875 C99.0226537 335.50782977 136.28732919 358.18642123 180.125 365.3125 C225.06475607 370.40826068 270.24944394 358.80383967 305.76025391 330.60205078 C332.5437097 309.0335902 350.72413687 280.94963067 360.8125 248.1875 C361.1027002 247.24511475 361.39290039 246.30272949 361.69189453 245.33178711 C373.39763836 205.88791933 366.86695221 161.36228244 348.16992188 125.15136719 C342.27870334 114.31801624 335.16685473 104.22975675 327 95 C326.54512207 94.47954102 326.09024414 93.95908203 325.62158203 93.42285156 C318.96544852 85.83935164 312.08426605 79.09058526 304 73 C302.96617187 72.20078125 301.93234375 71.4015625 300.8671875 70.578125 C286.06592548 59.38495708 269.58061297 51.73858492 252 46 C251.34628418 45.78617676 250.69256836 45.57235352 250.01904297 45.35205078 C200.20432185 29.38997038 143.8568752 41.10662293 103 73 Z " fill="#FEFEFE" transform="translate(0,0)"/>
<path d="M0 0 C1.32366247 0.44177443 2.64790501 0.88181378 3.97265625 1.3203125 C33.51747273 11.43564448 58.12417609 32.03314752 72.3125 60 C75.80089974 67.1336396 78.60250363 74.4258686 81 82 C81.22300781 82.68835938 81.44601562 83.37671875 81.67578125 84.0859375 C87.85337471 105.683936 84.94718067 127.56221709 80 149 C5.09 149 -69.82 149 -147 149 C-150.69061733 136.69794222 -152.37299887 125.98432719 -152.3125 113.1875 C-152.30758545 111.95427002 -152.3026709 110.72104004 -152.29760742 109.45043945 C-152.18356287 100.58596141 -151.50489152 92.54310562 -149 84 C-148.68289062 82.82566406 -148.36578125 81.65132813 -148.0390625 80.44140625 C-143.40577385 64.91496024 -135.41063799 50.38847941 -125 38 C-124.24332031 37.08089844 -123.48664063 36.16179687 -122.70703125 35.21484375 C-94.34835175 2.3224765 -41.85647207 -15.29827924 0 0 Z " fill="#FDFDFD" transform="translate(237,86)"/>
<path d="M0 0 C9.03864771 7.80927986 17.24260043 15.65531167 24.52734375 25.18359375 C25.25308594 26.08207031 25.97882813 26.98054688 26.7265625 27.90625 C53.35177642 61.68728058 63.46884179 106.12475479 58.51171875 148.45166016 C54.32237654 180.33338123 40.6023587 210.00204393 19.52734375 234.18359375 C18.68558594 235.15941406 17.84382813 236.13523437 16.9765625 237.140625 C-9.62516684 267.4152538 -49.20503855 286.74283121 -89.34375 289.90625 C-134.01128196 292.6720141 -176.35693009 280.79542283 -210.47265625 251.18359375 C-211.70048828 250.13945313 -211.70048828 250.13945313 -212.953125 249.07421875 C-244.52363977 221.56922337 -262.96441052 182.57157751 -267.47265625 141.18359375 C-267.75764254 135.91134732 -267.81380874 130.64966813 -267.78515625 125.37109375 C-267.78333344 124.66949127 -267.78151062 123.96788879 -267.77963257 123.24502563 C-267.73307843 112.58079215 -267.0812217 102.56505056 -264.47265625 92.18359375 C-264.13905881 90.68524368 -263.80710418 89.18652715 -263.4765625 87.6875 C-256.51025404 57.53449551 -240.56750718 32.36107311 -219.47265625 10.18359375 C-218.88097656 9.5390625 -218.28929687 8.89453125 -217.6796875 8.23046875 C-161.5364491 -51.10115109 -60.93674696 -50.39195214 0 0 Z M-142.47265625 -17.81640625 C-143.55426025 -17.52685059 -143.55426025 -17.52685059 -144.65771484 -17.23144531 C-162.41774144 -12.43399302 -180.30993032 -3.60373827 -194.47265625 8.18359375 C-194.98441406 8.59963867 -195.49617188 9.01568359 -196.0234375 9.44433594 C-219.91629222 28.87476639 -238.91153449 54.22665056 -247.47265625 84.18359375 C-247.70114258 84.96508789 -247.92962891 85.74658203 -248.16503906 86.55175781 C-259.13871133 125.73920181 -252.47594615 167.03962007 -232.81640625 202.21875 C-226.36155172 213.35499861 -218.42670158 222.97408351 -209.47265625 232.18359375 C-208.93624512 232.74336914 -208.39983398 233.30314453 -207.84716797 233.87988281 C-203.82179995 238.01269954 -199.60783322 241.62855124 -194.97265625 245.05859375 C-193.93008667 245.83058105 -193.93008667 245.83058105 -192.86645508 246.61816406 C-177.63958233 257.73176334 -161.38672201 265.85925111 -143.22265625 271.05859375 C-142.56354248 271.24969727 -141.90442871 271.44080078 -141.2253418 271.63769531 C-128.81792654 274.94553893 -116.05745392 275.59708693 -103.28515625 275.55859375 C-102.56654419 275.55771759 -101.84793213 275.55684143 -101.10754395 275.55593872 C-89.16684855 275.50816139 -77.97554922 274.51483541 -66.47265625 271.18359375 C-65.63943848 270.95285156 -64.8062207 270.72210938 -63.94775391 270.484375 C-45.78949267 265.35158551 -28.11185567 257.23278096 -13.47265625 245.18359375 C-12.70066895 244.55735107 -12.70066895 244.55735107 -11.91308594 243.91845703 C18.3686896 219.28679603 39.99542574 184.50090716 44.52734375 145.18359375 C44.94252452 139.14794934 44.97865103 133.10618202 44.96484375 127.05859375 C44.96490417 125.95487427 44.96490417 125.95487427 44.96496582 124.82885742 C44.86841392 94.4912337 36.0452725 64.55533055 17.52734375 40.18359375 C16.8828125 39.33152344 16.23828125 38.47945312 15.57421875 37.6015625 C-3.74145074 12.84860809 -27.79523235 -5.12307274 -57.59765625 -15.25390625 C-58.98984375 -15.73089966 -58.98984375 -15.73089966 -60.41015625 -16.2175293 C-74.87275312 -20.87105012 -89.18066847 -22.37928313 -104.28515625 -22.25390625 C-105.06880554 -22.25086487 -105.85245483 -22.24782349 -106.65985107 -22.24468994 C-118.99378208 -22.17412072 -130.57967242 -21.29369596 -142.47265625 -17.81640625 Z " fill="#33373A" transform="translate(307.47265625,75.81640625)"/>
<path d="M0 0 C72.27 0 144.54 0 219 0 C216.27844567 13.60777165 207.04413302 25.77217677 198 36 C197.53754883 36.52432617 197.07509766 37.04865234 196.59863281 37.58886719 C177.75806946 58.52719682 148.89814768 73.47947419 120.71386719 75.20068359 C97.5673136 76.18822834 76.70335231 73.69682407 56 63 C55.38688965 62.68659668 54.7737793 62.37319336 54.14208984 62.05029297 C29.77374838 49.39316922 10.56319692 28.32369062 0 3 C0 2.01 0 1.02 0 0 Z " fill="#FEFEFE" transform="translate(94,243)"/>
<path d="M0 0 C0.93126709 0.44496826 0.93126709 0.44496826 1.88134766 0.89892578 C24.73853764 11.98254241 43.71787185 30.90730132 56 53 C56.33628418 53.59619141 56.67256836 54.19238281 57.01904297 54.80664062 C67.46238018 73.54480321 72.4055274 93.66226783 72.3125 115.0625 C72.31001251 115.74663971 72.30752502 116.43077942 72.30496216 117.13565063 C72.1305177 148.1980918 62.35594149 177.17176177 42 201 C41.18660156 201.96421875 40.37320313 202.9284375 39.53515625 203.921875 C18.13966618 228.39317802 -14.58120532 244.96611921 -47.17114258 247.21923828 C-85.5315463 248.56561268 -119.41082257 237.39686853 -147.77148438 211.08862305 C-164.35717158 195.37340982 -175.98456791 175.66916172 -183 154 C-183.2259082 153.30729004 -183.45181641 152.61458008 -183.68457031 151.90087891 C-193.29597146 120.62322403 -187.5322063 83.88430768 -172.8125 55.3125 C-156.50674821 25.08703284 -128.82952975 2.14501783 -96 -8 C-63.57609882 -17.45945007 -30.32772259 -14.69235267 0 0 Z M-135 27 C-135.91265625 27.76957031 -136.8253125 28.53914063 -137.765625 29.33203125 C-149.07835779 39.11217314 -157.219204 50.73985553 -164 64 C-164.31066406 64.60118652 -164.62132812 65.20237305 -164.94140625 65.82177734 C-177.05998126 89.78638619 -180.41162766 119.05930321 -173 145 C-172.01 148.465 -172.01 148.465 -171 152 C-96.09 152 -21.18 152 56 152 C64.72758536 117.08965856 61.43699401 84.94626497 43.09765625 53.765625 C38.20440237 46.040488 32.31310125 39.55627255 26 33 C25.05060547 31.93845703 25.05060547 31.93845703 24.08203125 30.85546875 C8.0233054 13.44965331 -19.88808017 0.1705129 -43.52368164 -1.20507812 C-47.53916597 -1.30475958 -51.54618323 -1.33481319 -55.5625 -1.3125 C-56.27409271 -1.31001251 -56.98568542 -1.30752502 -57.71884155 -1.30496216 C-86.77637705 -1.14767357 -113.07251972 7.43138503 -135 27 Z M-167 160 C-166.2243465 165.26816081 -166.2243465 165.26816081 -164.25 169.6640625 C-163.89405762 170.30480713 -163.53811523 170.94555176 -163.17138672 171.60571289 C-162.7848291 172.27207764 -162.39827148 172.93844238 -162 173.625 C-161.39115967 174.68158813 -161.39115967 174.68158813 -160.77001953 175.75952148 C-144.57588955 203.352189 -118.91133735 223.49688131 -88 232 C-86.93910156 232.31839844 -85.87820312 232.63679688 -84.78515625 232.96484375 C-56.0952167 240.22939087 -24.00922823 234.53582114 1.5 220.125 C24.34738639 206.24372742 40.84639814 187.27390164 52 163 C52 162.01 52 161.02 52 160 C-20.27 160 -92.54 160 -167 160 Z " fill="#35393C" transform="translate(261,83)"/>
</svg>
